#N canvas 211 328 484 345 12;
#X obj 147 8 loadbang;
#X floatatom 170 51 5 0 0 0 - - length;
#X floatatom 114 47 5 0 0 0 - - seed;
#X obj 1 1 cnv 15 460 75 empty empty empty 20 12 0 14 -99865 -66577
0;
#X obj 22 26 tgl 25 0 start empty empty 17 7 0 10 -262144 -1 -1 0 1
;
#X obj 93 1 cnv 15 10 10 empty empty seed 20 12 0 14 -99865 -262144
0;
#X obj 1 1 cnv 15 10 10 empty empty start/stop 20 12 0 14 -99865 -262144
0;
#X obj 211 1 cnv 15 10 10 empty empty reset 20 12 0 14 -99865 -262144
0;
#X obj 309 26 tgl 25 0 loop empty empty 17 7 0 10 -262144 -1 -1 0 1
;
#X obj 287 1 cnv 15 10 10 empty empty loop 20 12 0 14 -99865 -262144
0;
#X obj 233 27 bng 25 250 50 0 reset empty empty 17 7 0 10 -262144 -1
-1;
#X obj 385 26 tgl 25 0 directout empty empty 17 7 0 10 -262144 -1 -1
0 1;
#X obj 363 1 cnv 15 10 10 empty empty directout 20 12 0 14 -99865 -262144
0;
#X obj 150 1 cnv 15 10 10 empty empty length 20 12 0 14 -99865 -262144
0;
#X msg 170 29 240;
#X msg 113 29 23;
#X obj 56 178 loadbang;
#X obj 56 199 s init;
#N canvas 410 169 1430 521 subpatch 1;
#X obj 161 227 osc-sc-eval-5000;
#X obj 27 180 r seed;
#X msg 27 206 (set-seed-to \$1);
#N canvas 646 241 671 621 magic 1;
#X obj 205 288 cyclone/fromsymbol;
#X obj 229 260 cyclone/fromsymbol;
#X obj 156 315 cyclone/fromsymbol;
#X obj 254 232 cyclone/fromsymbol;
#X obj 156 383 route 0 1 2 3 4 5;
#X obj 33 19 inlet;
#X obj 94 541 print lisp;
#X obj 33 50 route LAYERS PRINT;
#X obj 278 205 cyclone/fromsymbol;
#X obj 303 177 cyclone/fromsymbol;
#X obj 327 149 cyclone/fromsymbol;
#X obj 156 88 unpack s s s s s s s s s s, f 32;
#X obj 156 353 pack f s f f f f f f s f, f 32;
#X obj 377 122 cyclone/fromsymbol;
#X obj 175 513 sample-pair 1;
#X obj 194 490 sample-pair 2;
#X obj 214 467 sample-pair 3;
#X obj 233 444 sample-pair 4;
#X obj 252 421 sample-pair 5;
#X connect 0 0 12 2;
#X connect 1 0 12 3;
#X connect 2 0 12 0;
#X connect 3 0 12 4;
#X connect 4 1 14 0;
#X connect 4 2 15 0;
#X connect 4 3 16 0;
#X connect 4 4 17 0;
#X connect 4 5 18 0;
#X connect 5 0 7 0;
#X connect 7 1 6 0;
#X connect 7 2 11 0;
#X connect 8 0 12 5;
#X connect 9 0 12 6;
#X connect 10 0 12 7;
#X connect 11 0 2 0;
#X connect 11 1 12 1;
#X connect 11 2 0 0;
#X connect 11 3 1 0;
#X connect 11 4 3 0;
#X connect 11 5 8 0;
#X connect 11 6 9 0;
#X connect 11 7 10 0;
#X connect 11 8 12 8;
#X connect 11 9 13 0;
#X connect 12 0 4 0;
#X connect 13 0 12 9;
#X restore 161 285 pd magic;
#X obj 161 251 s sc;
#X obj 352 27 r play-1;
#X obj 81 350 catch~ layer1;
#X obj 352 50 r play-2;
#X obj 161 46 bng 15 250 50 0 empty empty empty 17 7 0 10 -262144 -1
-1;
#X obj 178 350 catch~ layer2;
#X obj 275 350 catch~ layer3;
#X obj 352 73 r play-3;
#X obj 425 48 spigot;
#X obj 464 2 r start;
#X obj 425 71 spigot;
#X obj 425 94 spigot;
#X obj 372 350 catch~ layer4;
#X obj 469 350 catch~ layer5;
#X obj 161 23 select 1;
#X msg 464 206 (set-start-stop \$1);
#X msg 351 206 (reset-layers);
#X obj 351 178 r reset;
#X msg 611 206 (set-loop \$1);
#X obj 611 180 r loop;
#X msg 715 206 (set-total-length \$1);
#X obj 715 180 r length;
#X msg 161 206 (play-layer '\$1 *layers*);
#X msg 161 90 1;
#X msg 161 113 2;
#X msg 161 136 3;
#X msg 161 159 4;
#X msg 161 182 5;
#X obj 425 117 spigot;
#X obj 425 140 spigot;
#X obj 352 96 r play-4;
#X obj 352 119 r play-5;
#X obj 673 278 r start;
#X obj 673 304 select 1;
#X obj 81 376 *~;
#X obj 178 376 *~;
#X obj 275 376 *~;
#X obj 469 376 *~;
#X msg 673 330 1 100;
#X obj 673 356 line~;
#X text 741 296 start and stop gracefully;
#X obj 372 376 *~;
#X msg 726 330 0 500;
#N canvas 574 260 450 300 midi 0;
#X floatatom 9 72 5 0 0 0 - - midi1;
#X obj 9 7 ctlin 7 1;
#X floatatom 78 72 5 0 0 0 - - midi2;
#X floatatom 147 72 5 0 0 0 - - midi3;
#X floatatom 216 72 5 0 0 0 - - midi4;
#X obj 78 7 ctlin 7 2;
#X obj 147 7 ctlin 7 3;
#X floatatom 285 72 5 0 0 0 - - midi5;
#X obj 9 33 / 127;
#X obj 78 33 / 127;
#X obj 147 33 / 127;
#X obj 216 33 / 127;
#X obj 285 33 / 127;
#X obj 216 7 ctlin 7 5;
#X obj 285 7 ctlin 7 6;
#X connect 1 0 8 0;
#X connect 5 0 9 0;
#X connect 6 0 10 0;
#X connect 8 0 0 0;
#X connect 9 0 2 0;
#X connect 10 0 3 0;
#X connect 11 0 4 0;
#X connect 12 0 7 0;
#X connect 13 0 11 0;
#X connect 14 0 12 0;
#X restore 30 19 pd midi;
#X obj 479 69 spigot;
#X obj 479 92 spigot;
#X obj 479 115 spigot;
#X obj 479 138 spigot;
#X obj 479 161 spigot;
#X obj 529 48 r stop-1;
#X obj 529 71 r stop-2;
#X obj 529 94 r stop-3;
#X obj 529 117 r stop-4;
#X obj 529 140 r stop-5;
#X msg 872 190 (list '2 "E:/ZKF/Layers/samples/background/atmo/piano.wav"2
5000 0 0 0.9 1 'test), f 74;
#X msg 826 40 (swap-stored-file-list *layer1* *whispers*);
#X obj 826 88 s send-to-sc;
#X msg 826 64 (swap-stored-file-list *layer1* *breath*);
#X obj 82 402 mixer 1;
#X obj 179 402 mixer 2;
#X obj 276 402 mixer 3;
#X obj 373 402 mixer 4;
#X obj 470 401 mixer 5;
#X obj 249 270 print;
#X msg 553 260 (print (+ 1 1));
#X connect 0 0 4 0;
#X connect 0 0 3 0;
#X connect 0 0 67 0;
#X connect 1 0 2 0;
#X connect 2 0 0 0;
#X connect 5 0 12 0;
#X connect 6 0 38 0;
#X connect 7 0 14 0;
#X connect 8 0 27 0;
#X connect 8 0 28 0;
#X connect 8 0 29 0;
#X connect 8 0 30 0;
#X connect 8 0 31 0;
#X connect 9 0 39 0;
#X connect 10 0 40 0;
#X connect 11 0 15 0;
#X connect 12 0 48 0;
#X connect 13 0 12 1;
#X connect 13 0 14 1;
#X connect 13 0 15 1;
#X connect 13 0 19 0;
#X connect 13 0 18 0;
#X connect 13 0 32 1;
#X connect 13 0 33 1;
#X connect 14 0 49 0;
#X connect 15 0 50 0;
#X connect 16 0 45 0;
#X connect 17 0 41 0;
#X connect 18 0 8 0;
#X connect 19 0 0 0;
#X connect 20 0 0 0;
#X connect 21 0 20 0;
#X connect 22 0 0 0;
#X connect 23 0 22 0;
#X connect 24 0 0 0;
#X connect 25 0 24 0;
#X connect 26 0 0 0;
#X connect 27 0 26 0;
#X connect 28 0 26 0;
#X connect 29 0 26 0;
#X connect 30 0 26 0;
#X connect 31 0 26 0;
#X connect 32 0 51 0;
#X connect 33 0 52 0;
#X connect 34 0 32 0;
#X connect 35 0 33 0;
#X connect 36 0 37 0;
#X connect 37 0 42 0;
#X connect 37 1 46 0;
#X connect 38 0 62 0;
#X connect 39 0 63 0;
#X connect 40 0 64 0;
#X connect 41 0 66 0;
#X connect 42 0 43 0;
#X connect 43 0 38 1;
#X connect 43 0 39 1;
#X connect 43 0 40 1;
#X connect 43 0 41 1;
#X connect 43 0 45 1;
#X connect 45 0 65 0;
#X connect 46 0 43 0;
#X connect 48 0 27 0;
#X connect 49 0 28 0;
#X connect 50 0 29 0;
#X connect 51 0 30 0;
#X connect 52 0 31 0;
#X connect 53 0 48 1;
#X connect 53 0 48 0;
#X connect 54 0 49 1;
#X connect 54 0 49 0;
#X connect 55 0 50 1;
#X connect 55 0 50 0;
#X connect 56 0 51 1;
#X connect 56 0 51 0;
#X connect 57 0 52 1;
#X connect 57 0 52 0;
#X connect 58 0 0 0;
#X connect 59 0 60 0;
#X connect 61 0 60 0;
#X connect 68 0 0 0;
#X restore 380 55 pd subpatch;
#X obj 1 77 cnv 15 460 255 empty empty Fader 20 12 0 14 -191407 -66577
0;
#X obj 45 136 vu 15 120 meter1 empty -1 -8 0 10 -66577 -1 1 0;
#X obj 19 128 vsl 15 128 0 1 0 0 fader1 midi1 empty 0 -9 0 10 -262144
-1 -1 0 1;
#X obj 132 136 vu 15 120 meter2 empty -1 -8 0 10 -66577 -1 1 0;
#X obj 107 129 vsl 15 128 0 1 0 0 fader2 midi2 empty 0 -9 0 10 -262144
-1 -1 0 1;
#X obj 220 136 vu 15 120 meter3 empty -1 -8 0 10 -66577 -1 1 0;
#X obj 195 129 vsl 15 128 0 1 0 0 fader3 midi3 empty 0 -9 0 10 -262144
-1 -1 0 1;
#X obj 308 136 vu 15 120 meter4 empty -1 -8 0 10 -66577 -1 1 0;
#X obj 283 129 vsl 15 128 0 1 0 0 fader4 midi4 empty 0 -9 0 10 -262144
-1 -1 0 1;
#X obj 396 136 vu 15 120 meter5 empty -1 -8 0 10 -66577 -1 1 0;
#X obj 371 129 vsl 15 128 0 1 0 0 fader5 midi5 empty 0 -9 0 10 -262144
-1 -1 0 1;
#X symbolatom 19 104 12 0 0 2 - id1 -;
#X symbolatom 107 104 12 0 0 2 - id2 -;
#X symbolatom 195 104 12 0 0 2 - id3 -;
#X symbolatom 283 104 12 0 0 2 - id4 -;
#X symbolatom 371 104 12 0 0 2 - id5 -;
#X obj 19 262 tgl 15 0 mute-1 init empty 17 7 0 10 -262144 -1 -1 1
1;
#X obj 107 263 tgl 15 0 mute-2 init empty 17 7 0 10 -262144 -1 -1 1
1;
#X obj 195 263 tgl 15 0 mute-3 init empty 17 7 0 10 -262144 -1 -1 1
1;
#X obj 283 263 tgl 15 0 mute-4 init empty 17 7 0 10 -262144 -1 -1 1
1;
#X obj 371 263 tgl 15 0 mute-5 init empty 17 7 0 10 -262144 -1 -1 1
1;
#X obj 1 282 cnv 15 460 50 empty empty Pause_structure_for_each_layer
20 12 0 14 -99865 -262144 0;
#X obj 19 307 tgl 15 0 stop-1 init empty 17 7 0 10 -262144 -1 -1 1
1;
#X obj 107 308 tgl 15 0 stop-2 init empty 17 7 0 10 -262144 -1 -1 1
1;
#X obj 195 308 tgl 15 0 stop-3 init empty 17 7 0 10 -262144 -1 -1 1
1;
#X obj 283 308 tgl 15 0 stop-4 init empty 17 7 0 10 -262144 -1 -1 1
1;
#X obj 371 308 tgl 15 0 stop-5 init empty 17 7 0 10 -262144 -1 -1 1
1;
#X connect 0 0 15 0;
#X connect 0 0 14 0;
#X connect 14 0 1 0;
#X connect 15 0 2 0;
#X connect 16 0 17 0;
