#N canvas 426 328 410 322 12;
#X msg 20 166 start;
#X msg 82 165 stop;
#X obj 16 284 dac~;
#X obj 16 186 readsf~ 2, f 16;
#X msg 16 146 open \$1;
#X obj 16 12 inlet;
#X obj 82 73 * 1000;
#X obj 82 96 t b f;
#X obj 82 119 del;
#X obj 209 140 bng 15 250 50 0 empty empty empty 17 7 0 10 -262144
-1 -1;
#X obj 117 239 r directout;
#X obj 16 259 *~;
#X obj 70 259 *~;
#X obj 16 36 unpack s f f s, f 29;
#X symbolatom 216 61 10 0 0 0 - - id1;
#X obj 295 76 f \$1;
#X obj 295 47 loadbang;
#X msg 295 111 play-\$1;
#X obj 295 137 symbol;
#X obj 209 158 s;
#X msg 295 214 set layer\$1;
#X obj 212 235 throw~;
#X msg 131 103 0 \$1;
#X obj 131 127 line;
#X floatatom 131 151 5 0 0 0 - - -;
#X obj 131 79 f;
#X obj 82 142 del;
#X msg 16 106 1;
#X obj 16 213 *~ 1;
#X obj 71 213 *~ 1;
#X obj 189 97 print;
#X obj 137 207 t b b;
#X connect 0 0 3 0;
#X connect 1 0 3 0;
#X connect 3 0 28 0;
#X connect 3 1 29 0;
#X connect 3 2 31 0;
#X connect 4 0 3 0;
#X connect 4 0 0 0;
#X connect 5 0 13 0;
#X connect 6 0 7 0;
#X connect 7 0 8 0;
#X connect 7 1 8 1;
#X connect 8 0 25 0;
#X connect 8 0 9 0;
#X connect 8 0 26 0;
#X connect 9 0 19 0;
#X connect 10 0 11 1;
#X connect 10 0 12 1;
#X connect 11 0 2 0;
#X connect 12 0 2 1;
#X connect 13 0 4 0;
#X connect 13 0 27 0;
#X connect 13 1 6 0;
#X connect 13 2 25 1;
#X connect 13 2 26 1;
#X connect 13 3 14 0;
#X connect 15 0 17 0;
#X connect 15 0 20 0;
#X connect 16 0 15 0;
#X connect 17 0 18 0;
#X connect 18 0 19 1;
#X connect 20 0 21 0;
#X connect 22 0 23 0;
#X connect 23 0 24 0;
#X connect 24 0 29 1;
#X connect 24 0 28 1;
#X connect 25 0 22 0;
#X connect 25 0 30 0;
#X connect 26 0 1 0;
#X connect 27 0 23 0;
#X connect 27 0 30 0;
#X connect 28 0 11 0;
#X connect 28 0 21 0;
#X connect 29 0 12 0;
#X connect 29 0 21 0;
#X connect 31 0 0 0;
#X connect 31 1 4 0;
