#N canvas 35 113 558 385 12;
#X obj 37 151 *~;
#X obj 12 39 vsl 15 128 0 1 0 0 empty empty empty 0 -9 0 10 -262144
-1 -1 3500 1;
#X obj 37 207 env~;
#X obj 36 128 inlet~;
#X obj 37 233 - 100;
#X floatatom 37 259 5 0 0 0 - - -;
#X obj 90 107 log 2;
#X obj 90 84 /;
#X obj 55 36 select 0;
#X msg 89 61 1;
#X msg 55 61 0;
#X obj 90 130 expr pow(10 \, -(($f1 * $f2) / 20));
#X msg 318 91 10;
#X obj 318 66 loadbang;
#X obj 37 184 *~;
#X msg 449 163 0;
#X msg 410 163 1;
#X obj 410 130 spigot;
#X obj 410 80 r play-\$1;
#X obj 449 105 r mute-\$1;
#X obj 12 10 r fader\$1;
#X obj 37 284 s meter\$1;
#X obj 107 206 panning;
#X obj 107 232 dac~;
#X obj 153 159 r panning-\$1;
#X connect 0 0 14 0;
#X connect 1 0 8 0;
#X connect 2 0 4 0;
#X connect 3 0 0 0;
#X connect 4 0 5 0;
#X connect 5 0 21 0;
#X connect 6 0 11 0;
#X connect 7 0 6 0;
#X connect 8 0 10 0;
#X connect 8 1 7 1;
#X connect 8 1 9 0;
#X connect 9 0 7 0;
#X connect 10 0 0 1;
#X connect 11 0 0 1;
#X connect 12 0 11 1;
#X connect 13 0 12 0;
#X connect 13 0 16 0;
#X connect 14 0 2 0;
#X connect 14 0 22 0;
#X connect 15 0 14 1;
#X connect 16 0 14 1;
#X connect 17 0 16 0;
#X connect 18 0 17 0;
#X connect 19 0 15 0;
#X connect 19 0 17 1;
#X connect 20 0 1 0;
#X connect 22 0 23 0;
#X connect 22 1 23 1;
#X connect 24 0 22 1;
