#N canvas 0 50 377 265 12;
#X obj 34 154 cos~;
#X obj 90 154 cos~;
#X obj 192 67 hsl 100 15 0 0.25 0 0 empty empty empty -2 -8 0 10 -262144
-1 -1 4950 1;
#X obj 16 180 *~;
#X obj 72 180 *~;
#X obj 189 10 loadbang;
#X msg 189 34 0.125;
#X obj 15 10 inlet~;
#X obj 121 10 inlet;
#X obj 285 133 +~ 0.75;
#X msg 189 87 \$1 10;
#X obj 189 113 line~;
#X obj 16 206 outlet~;
#X obj 72 206 outlet~;
#X obj 121 36 / 360;
#X connect 0 0 3 1;
#X connect 1 0 4 1;
#X connect 2 0 10 0;
#X connect 3 0 12 0;
#X connect 4 0 13 0;
#X connect 5 0 6 0;
#X connect 6 0 2 0;
#X connect 7 0 3 0;
#X connect 7 0 4 0;
#X connect 8 0 14 0;
#X connect 9 0 1 0;
#X connect 10 0 11 0;
#X connect 11 0 0 0;
#X connect 11 0 9 0;
#X connect 14 0 2 0;
