#N canvas 520 326 585 427 12;
#X msg 58 85 open voice.wav;
#X msg 182 108 start;
#X msg 183 132 stop;
#X obj 191 219 bng 15 250 50 0 empty empty empty 0 -6 0 8 -262144 -1
-1;
#X obj 58 264 dac~;
#X obj 58 221 *~ 0.7;
#X obj 58 189 readsf~ 2;
#X obj 115 221 *~ 0.7;
#X text 45 18 3.4.1.2. datei abspielen;
#X text 358 340 Johannes Kreidler;
#X text 349 366 www.pd-tutorial.com;
#X connect 0 0 6 0;
#X connect 1 0 6 0;
#X connect 2 0 6 0;
#X connect 5 0 4 0;
#X connect 6 0 5 0;
#X connect 6 1 7 0;
#X connect 6 2 3 0;
#X connect 7 0 4 1;
