#N canvas 547 300 484 404 12;
#X obj 147 8 loadbang;
#X floatatom 170 51 5 0 0 0 - - length;
#X floatatom 114 47 5 0 0 0 - - seed;
#X obj 1 1 cnv 15 460 75 empty empty empty 20 12 0 14 -99865 -66577
0;
#X obj 22 26 tgl 25 0 start empty empty 17 7 0 10 -262144 -1 -1 0 1
;
#X obj 93 1 cnv 15 10 10 empty empty seed 20 12 0 14 -99865 -262144
0;
#X obj 1 1 cnv 15 10 10 empty empty start/stop 20 12 0 14 -99865 -262144
0;
#X obj 211 1 cnv 15 10 10 empty empty reset 20 12 0 14 -99865 -262144
0;
#X obj 309 26 tgl 25 0 loop empty empty 17 7 0 10 -262144 -1 -1 0 1
;
#X obj 287 1 cnv 15 10 10 empty empty loop 20 12 0 14 -99865 -262144
0;
#X obj 233 27 bng 25 250 50 0 reset empty empty 17 7 0 10 -262144 -1
-1;
#X obj 385 26 tgl 25 0 directout empty empty 17 7 0 10 -262144 -1 -1
0 1;
#X obj 363 1 cnv 15 10 10 empty empty directout 20 12 0 14 -99865 -262144
0;
#X obj 150 1 cnv 15 10 10 empty empty length 20 12 0 14 -99865 -262144
0;
#X msg 170 29 240;
#X msg 113 29 23;
#X obj 56 201 loadbang;
#X obj 56 222 s init;
#N canvas 147 193 1430 521 subpatch 0;
#X obj 161 306 osc-sc-eval-5000;
#X obj 27 259 r seed;
#X msg 27 285 (set-seed-to \$1);
#N canvas 646 241 671 621 magic 0;
#X obj 204 303 cyclone/fromsymbol;
#X obj 228 276 cyclone/fromsymbol;
#X obj 156 329 cyclone/fromsymbol;
#X obj 252 249 cyclone/fromsymbol;
#X obj 156 397 route 0 1 2 3 4 5;
#X obj 33 19 inlet;
#X obj 94 555 print lisp;
#X obj 33 50 route LAYERS PRINT;
#X obj 277 223 cyclone/fromsymbol;
#X obj 301 196 cyclone/fromsymbol;
#X obj 325 169 cyclone/fromsymbol;
#X obj 373 143 cyclone/fromsymbol;
#X obj 175 527 sample-pair 1;
#X obj 194 504 sample-pair 2;
#X obj 214 481 sample-pair 3;
#X obj 233 458 sample-pair 4;
#X obj 252 435 sample-pair 5;
#X obj 156 89 unpack s s s s s s s s s s s, f 35;
#X obj 156 367 pack f s f f f f f f s f f, f 35;
#X obj 398 118 cyclone/fromsymbol;
#X connect 0 0 18 2;
#X connect 1 0 18 3;
#X connect 2 0 18 0;
#X connect 3 0 18 4;
#X connect 4 1 12 0;
#X connect 4 2 13 0;
#X connect 4 3 14 0;
#X connect 4 4 15 0;
#X connect 4 5 16 0;
#X connect 5 0 7 0;
#X connect 7 1 6 0;
#X connect 7 2 17 0;
#X connect 8 0 18 5;
#X connect 9 0 18 6;
#X connect 10 0 18 7;
#X connect 11 0 18 9;
#X connect 17 0 2 0;
#X connect 17 1 18 1;
#X connect 17 2 0 0;
#X connect 17 3 1 0;
#X connect 17 4 3 0;
#X connect 17 5 8 0;
#X connect 17 6 9 0;
#X connect 17 7 10 0;
#X connect 17 8 18 8;
#X connect 17 9 11 0;
#X connect 17 10 19 0;
#X connect 18 0 4 0;
#X connect 19 0 18 10;
#X restore 161 364 pd magic;
#X obj 161 330 s sc;
#X obj 352 27 r play-1;
#X obj 352 50 r play-2;
#X obj 161 46 bng 15 250 50 0 empty empty empty 17 7 0 10 -262144 -1
-1;
#X obj 352 73 r play-3;
#X obj 425 48 spigot;
#X obj 464 2 r start;
#X obj 425 71 spigot;
#X obj 425 94 spigot;
#X obj 161 23 select 1;
#X msg 464 285 (set-start-stop \$1);
#X msg 351 285 (reset-layers);
#X obj 351 257 r reset;
#X msg 611 285 (set-loop \$1);
#X obj 611 259 r loop;
#X msg 715 285 (set-total-length \$1);
#X obj 715 259 r length;
#X msg 161 90 1;
#X msg 161 113 2;
#X msg 161 136 3;
#X msg 161 159 4;
#X msg 161 182 5;
#X obj 425 117 spigot;
#X obj 425 140 spigot;
#X obj 352 96 r play-4;
#X obj 352 119 r play-5;
#N canvas 574 260 450 300 midi 0;
#X floatatom 9 72 5 0 0 0 - - midi1;
#X obj 9 7 ctlin 7 1;
#X floatatom 78 72 5 0 0 0 - - midi2;
#X floatatom 147 72 5 0 0 0 - - midi3;
#X floatatom 216 72 5 0 0 0 - - midi4;
#X obj 78 7 ctlin 7 2;
#X obj 147 7 ctlin 7 3;
#X floatatom 285 72 5 0 0 0 - - midi5;
#X obj 9 33 / 127;
#X obj 78 33 / 127;
#X obj 147 33 / 127;
#X obj 216 33 / 127;
#X obj 285 33 / 127;
#X obj 216 7 ctlin 7 5;
#X obj 285 7 ctlin 7 6;
#X connect 1 0 8 0;
#X connect 5 0 9 0;
#X connect 6 0 10 0;
#X connect 8 0 0 0;
#X connect 9 0 2 0;
#X connect 10 0 3 0;
#X connect 11 0 4 0;
#X connect 12 0 7 0;
#X connect 13 0 11 0;
#X connect 14 0 12 0;
#X restore 30 19 pd midi;
#X obj 479 69 spigot;
#X obj 479 92 spigot;
#X obj 479 115 spigot;
#X obj 479 138 spigot;
#X obj 479 161 spigot;
#X obj 529 48 r stop-1;
#X obj 529 71 r stop-2;
#X obj 529 94 r stop-3;
#X obj 529 117 r stop-4;
#X obj 529 140 r stop-5;
#X msg 872 269 (list '2 "E:/ZKF/Layers/samples/background/atmo/piano.wav"2
5000 0 0 0.9 1 'test), f 74;
#X msg 826 40 (swap-stored-file-list *layer1* *whispers*);
#X obj 826 88 s send-to-sc;
#X msg 826 64 (swap-stored-file-list *layer1* *breath*);
#X obj 249 349 print;
#X msg 553 339 (print (+ 1 1));
#N canvas 0 50 450 300 clock 0;
#X obj 28 64 metro 10;
#X obj 28 28 r start;
#X floatatom 28 143 5 0 0 0 - - -;
#X obj 28 93 f 0;
#X obj 38 119 + 10;
#X msg 125 72 0;
#X obj 125 46 r reset;
#X obj 28 168 s clock;
#X connect 0 0 3 0;
#X connect 1 0 0 0;
#X connect 2 0 7 0;
#X connect 3 0 2 0;
#X connect 3 0 4 0;
#X connect 4 0 3 1;
#X connect 5 0 3 0;
#X connect 6 0 5 0;
#X restore 30 44 pd clock;
#X obj 161 206 pack f f;
#X obj 214 178 r clock;
#X msg 161 232 (play-layer '\$1 *layers* '\$2);
#N canvas 531 268 1248 406 set-n 0;
#X obj 40 15 r n-1;
#X obj 40 41 t f b;
#X msg 72 67 1;
#X obj 83 41 t f b;
#X obj 126 41 t f b;
#X obj 169 41 t f b;
#X obj 212 41 t f b;
#X msg 115 67 2;
#X msg 158 67 3;
#X msg 201 67 4;
#X msg 244 67 5;
#X obj 83 15 r n-2;
#X obj 126 15 r n-3;
#X obj 169 15 r n-4;
#X obj 212 15 r n-5;
#X obj 86 237 outlet;
#X obj 218 105 r clock-1;
#X obj 287 105 r clock-2;
#X obj 356 105 r clock-3;
#X obj 425 105 r clock-4;
#X obj 494 105 r clock-5;
#X obj 200 134 f;
#X obj 269 134 f;
#X obj 476 134 f;
#X obj 407 134 f;
#X obj 338 134 f;
#X obj 531 164 r clock;
#X obj 585 5 r n-1;
#X obj 585 31 t f b;
#X msg 617 57 1;
#X obj 628 31 t f b;
#X obj 671 31 t f b;
#X obj 714 31 t f b;
#X obj 757 31 t f b;
#X msg 660 57 2;
#X msg 703 57 3;
#X msg 746 57 4;
#X msg 789 57 5;
#X obj 628 5 r n-2;
#X obj 671 5 r n-3;
#X obj 714 5 r n-4;
#X obj 757 5 r n-5;
#X obj 763 95 r clock-1;
#X obj 832 95 r clock-2;
#X obj 901 95 r clock-3;
#X obj 970 95 r clock-4;
#X obj 1039 95 r clock-5;
#X obj 745 124 f;
#X obj 814 124 f;
#X obj 1021 124 f;
#X obj 952 124 f;
#X obj 883 124 f;
#X obj 1076 154 r clock;
#X obj 631 175 pack f f f f;
#X obj 86 185 pack f f f;
#X msg 86 211 (set-n \$1 '\$2 *layers* \$3);
#X connect 0 0 1 0;
#X connect 1 0 54 0;
#X connect 1 1 2 0;
#X connect 2 0 21 0;
#X connect 2 0 54 1;
#X connect 3 0 54 0;
#X connect 3 1 7 0;
#X connect 4 0 54 0;
#X connect 4 1 8 0;
#X connect 5 0 54 0;
#X connect 5 1 9 0;
#X connect 6 0 54 0;
#X connect 6 1 10 0;
#X connect 7 0 22 0;
#X connect 7 0 54 1;
#X connect 8 0 25 0;
#X connect 8 0 54 1;
#X connect 9 0 24 0;
#X connect 9 0 54 1;
#X connect 10 0 23 0;
#X connect 10 0 54 1;
#X connect 11 0 3 0;
#X connect 12 0 4 0;
#X connect 13 0 5 0;
#X connect 14 0 6 0;
#X connect 16 0 21 1;
#X connect 17 0 22 1;
#X connect 18 0 25 1;
#X connect 19 0 24 1;
#X connect 20 0 23 1;
#X connect 26 0 54 2;
#X connect 27 0 28 0;
#X connect 28 0 53 0;
#X connect 28 1 29 0;
#X connect 29 0 47 0;
#X connect 29 0 53 1;
#X connect 30 0 53 0;
#X connect 30 1 34 0;
#X connect 31 0 53 0;
#X connect 31 1 35 0;
#X connect 32 0 53 0;
#X connect 32 1 36 0;
#X connect 33 0 53 0;
#X connect 33 1 37 0;
#X connect 34 0 48 0;
#X connect 34 0 53 1;
#X connect 35 0 51 0;
#X connect 35 0 53 1;
#X connect 36 0 50 0;
#X connect 36 0 53 1;
#X connect 37 0 49 0;
#X connect 37 0 53 1;
#X connect 38 0 30 0;
#X connect 39 0 31 0;
#X connect 40 0 32 0;
#X connect 41 0 33 0;
#X connect 42 0 47 1;
#X connect 43 0 48 1;
#X connect 44 0 51 1;
#X connect 45 0 50 1;
#X connect 46 0 49 1;
#X connect 47 0 53 2;
#X connect 48 0 53 2;
#X connect 49 0 53 2;
#X connect 50 0 53 2;
#X connect 51 0 53 2;
#X connect 52 0 53 3;
#X connect 54 0 55 0;
#X connect 55 0 15 0;
#X restore 280 285 pd set-n;
#N canvas -2 264 951 280 mixer-and-out 0;
#X obj 39 110 catch~ layer1;
#X obj 136 110 catch~ layer2;
#X obj 233 110 catch~ layer3;
#X obj 330 110 catch~ layer4;
#X obj 427 110 catch~ layer5;
#X obj 631 38 r start;
#X obj 631 64 select 1;
#X obj 39 136 *~;
#X obj 136 136 *~;
#X obj 233 136 *~;
#X obj 427 136 *~;
#X msg 631 90 1 100;
#X obj 631 116 line~;
#X text 699 56 start and stop gracefully;
#X obj 330 136 *~;
#X msg 684 90 0 500;
#X obj 40 162 mixer 1;
#X obj 137 162 mixer 2;
#X obj 234 162 mixer 3;
#X obj 331 162 mixer 4;
#X obj 428 161 mixer 5;
#X connect 0 0 7 0;
#X connect 1 0 8 0;
#X connect 2 0 9 0;
#X connect 3 0 14 0;
#X connect 4 0 10 0;
#X connect 5 0 6 0;
#X connect 6 0 11 0;
#X connect 6 1 15 0;
#X connect 7 0 16 0;
#X connect 8 0 17 0;
#X connect 9 0 18 0;
#X connect 10 0 20 0;
#X connect 11 0 12 0;
#X connect 12 0 7 1;
#X connect 12 0 8 1;
#X connect 12 0 9 1;
#X connect 12 0 10 1;
#X connect 12 0 14 1;
#X connect 14 0 19 0;
#X connect 15 0 12 0;
#X restore 30 69 pd mixer-and-out;
#X connect 0 0 4 0;
#X connect 0 0 3 0;
#X connect 1 0 2 0;
#X connect 2 0 0 0;
#X connect 5 0 9 0;
#X connect 6 0 11 0;
#X connect 7 0 21 0;
#X connect 7 0 22 0;
#X connect 7 0 23 0;
#X connect 7 0 24 0;
#X connect 7 0 25 0;
#X connect 8 0 12 0;
#X connect 9 0 31 0;
#X connect 10 0 9 1;
#X connect 10 0 11 1;
#X connect 10 0 12 1;
#X connect 10 0 14 0;
#X connect 10 0 13 0;
#X connect 10 0 26 1;
#X connect 10 0 27 1;
#X connect 11 0 32 0;
#X connect 12 0 33 0;
#X connect 13 0 7 0;
#X connect 14 0 0 0;
#X connect 15 0 0 0;
#X connect 16 0 15 0;
#X connect 17 0 0 0;
#X connect 18 0 17 0;
#X connect 19 0 0 0;
#X connect 20 0 19 0;
#X connect 21 0 48 0;
#X connect 22 0 48 0;
#X connect 23 0 48 0;
#X connect 24 0 48 0;
#X connect 25 0 48 0;
#X connect 26 0 34 0;
#X connect 27 0 35 0;
#X connect 28 0 26 0;
#X connect 29 0 27 0;
#X connect 31 0 21 0;
#X connect 32 0 22 0;
#X connect 33 0 23 0;
#X connect 34 0 24 0;
#X connect 35 0 25 0;
#X connect 36 0 31 1;
#X connect 36 0 31 0;
#X connect 37 0 32 1;
#X connect 37 0 32 0;
#X connect 38 0 33 1;
#X connect 38 0 33 0;
#X connect 39 0 34 1;
#X connect 39 0 34 0;
#X connect 40 0 35 1;
#X connect 40 0 35 0;
#X connect 41 0 0 0;
#X connect 42 0 43 0;
#X connect 44 0 43 0;
#X connect 46 0 0 0;
#X connect 48 0 50 0;
#X connect 49 0 48 1;
#X connect 50 0 0 0;
#X connect 51 0 0 0;
#X restore 380 55 pd subpatch;
#X obj 1 77 cnv 15 460 255 empty empty Layers 20 12 0 14 -191407 -66577
0;
#X obj 45 159 vu 15 120 meter1 empty -1 -8 0 10 -66577 -1 1 0;
#X obj 19 151 vsl 15 128 0 1 0 0 fader1 midi1 empty 0 -9 0 10 -262144
-1 -1 5500 1;
#X obj 132 158 vu 15 120 meter2 empty -1 -8 0 10 -66577 -1 1 0;
#X obj 107 151 vsl 15 128 0 1 0 0 fader2 midi2 empty 0 -9 0 10 -262144
-1 -1 900 1;
#X obj 220 158 vu 15 120 meter3 empty -1 -8 0 10 -66577 -1 1 0;
#X obj 195 151 vsl 15 128 0 1 0 0 fader3 midi3 empty 0 -9 0 10 -262144
-1 -1 4800 1;
#X obj 308 158 vu 15 120 meter4 empty -1 -8 0 10 -66577 -1 1 0;
#X obj 283 151 vsl 15 128 0 1 0 0 fader4 midi4 empty 0 -9 0 10 -262144
-1 -1 3700 1;
#X obj 396 158 vu 15 120 meter5 empty -1 -8 0 10 -66577 -1 1 0;
#X obj 371 151 vsl 15 128 0 1 0 0 fader5 midi5 empty 0 -9 0 10 -262144
-1 -1 3900 1;
#X symbolatom 19 103 12 0 0 2 - id1 -;
#X symbolatom 107 103 12 0 0 2 - id2 -;
#X symbolatom 195 103 12 0 0 2 - id3 -;
#X symbolatom 283 103 12 0 0 2 - id4 -;
#X symbolatom 371 103 12 0 0 2 - id5 -;
#X obj 19 288 tgl 15 0 mute-1 init empty 17 7 0 10 -262144 -1 -1 1
1;
#X obj 107 288 tgl 15 0 mute-2 init empty 17 7 0 10 -262144 -1 -1 1
1;
#X obj 195 288 tgl 15 0 mute-3 init empty 17 7 0 10 -262144 -1 -1 1
1;
#X obj 283 288 tgl 15 0 mute-4 init empty 17 7 0 10 -262144 -1 -1 1
1;
#X obj 371 288 tgl 15 0 mute-5 init empty 17 7 0 10 -262144 -1 -1 1
1;
#X obj 1 333 cnv 15 460 50 empty empty Pause_structure_for_each_layer
20 12 0 14 -99865 -262144 0;
#X obj 19 358 tgl 15 0 stop-1 init empty 17 7 0 10 -262144 -1 -1 1
1;
#X obj 107 359 tgl 15 0 stop-2 init empty 17 7 0 10 -262144 -1 -1 1
1;
#X obj 195 359 tgl 15 0 stop-3 init empty 17 7 0 10 -262144 -1 -1 1
1;
#X obj 283 359 tgl 15 0 stop-4 init empty 17 7 0 10 -262144 -1 -1 1
1;
#X obj 371 359 tgl 15 0 stop-5 init empty 17 7 0 10 -262144 -1 -1 1
1;
#X obj 19 308 hradio 15 1 0 5 n-1 empty empty 0 -8 0 10 -262144 -1
-1 1;
#X obj 107 308 hradio 15 1 0 5 n-2 empty empty 0 -8 0 10 -262144 -1
-1 0;
#X obj 196 308 hradio 15 1 0 5 n-3 empty empty 0 -8 0 10 -262144 -1
-1 0;
#X obj 283 308 hradio 15 1 0 5 n-4 empty empty 0 -8 0 10 -262144 -1
-1 0;
#X obj 371 308 hradio 15 1 0 5 n-5 empty empty 0 -8 0 10 -262144 -1
-1 4;
#X floatatom 19 126 10 0 0 0 - clock-1 -;
#X floatatom 106 126 10 0 0 0 - clock-2 -;
#X floatatom 194 126 10 0 0 0 - clock-3 -;
#X floatatom 282 126 10 0 0 0 - clock-4 -;
#X floatatom 370 126 10 0 0 0 - clock-5 -;
#X connect 0 0 15 0;
#X connect 0 0 14 0;
#X connect 14 0 1 0;
#X connect 15 0 2 0;
#X connect 16 0 17 0;
