#N canvas 276 220 702 470 12;
#X msg 191 384 192.168.56.101;
#X obj 191 408 s ip;
#X obj 302 408 s port;
#X msg 302 384 5000;
#X text 15 387 set ip and port \; then reload patch;
#X obj 191 365 t b b;
#X obj 191 346 loadbang;
#X obj 147 8 loadbang;
#X floatatom 170 51 5 0 0 0 - - length 0;
#X floatatom 111 44 5 0 0 0 - - seed 0;
#X obj 1 1 cnv 15 460 75 empty empty empty 20 12 0 14 #606060 #404040 0;
#X obj 22 26 tgl 25 0 start empty empty 17 7 0 10 #fcfcfc #000000 #000000 0 1;
#X obj 93 1 cnv 15 10 10 empty empty seed 20 12 0 14 #606060 #fcfcfc 0;
#X obj 1 1 cnv 15 10 10 empty empty start/stop 20 12 0 14 #606060 #fcfcfc 0;
#X obj 211 1 cnv 15 10 10 empty empty reset 20 12 0 14 #606060 #fcfcfc 0;
#X obj 309 26 tgl 25 0 loop empty empty 17 7 0 10 #fcfcfc #000000 #000000 0 1;
#X obj 287 1 cnv 15 10 10 empty empty loop 20 12 0 14 #606060 #fcfcfc 0;
#X obj 233 27 bng 25 250 50 0 reset empty empty 17 7 0 10 #fcfcfc #000000 #000000;
#X obj 150 1 cnv 15 10 10 empty empty length 20 12 0 14 #606060 #fcfcfc 0;
#X msg 113 27 23;
#X obj 56 201 loadbang;
#X obj 56 222 s init;
#N canvas 120 436 1584 484 subpatch 0;
#N canvas 908 186 913 723 magic 0;
#X obj 225 428 cyclone/fromsymbol;
#X obj 249 401 cyclone/fromsymbol;
#X obj 177 454 cyclone/fromsymbol;
#X obj 273 374 cyclone/fromsymbol;
#X obj 177 522 route 0 1 2 3 4 5;
#X obj 33 19 inlet;
#X obj 105 666 print lisp;
#X obj 298 348 cyclone/fromsymbol;
#X obj 322 321 cyclone/fromsymbol;
#X obj 346 294 cyclone/fromsymbol;
#X obj 394 268 cyclone/fromsymbol;
#X obj 177 214 unpack s s s s s s s s s s s, f 35;
#X obj 177 492 pack f s f f f f f f s f f, f 35;
#X obj 419 243 cyclone/fromsymbol;
#X obj 321 80 cyclone/fromsymbol;
#X obj 321 110 s timer-offset;
#X obj 33 103 s sc;
#N canvas 1289 192 411 411 trigger 0;
#X obj 60 45 inlet;
#X obj 60 93 list split 1;
#X obj 60 335 cyclone/fromsymbol;
#X obj 60 359 s set-timer;
#X obj 60 387 print timer;
#X obj 60 311 unpack s;
#X obj 100 228 list prepend;
#X obj 181 247 list;
#X obj 223 266 list;
#X obj 100 143 t l l;
#X obj 241 233 spigot;
#X msg 341 214 1;
#X msg 310 214 0;
#X obj 209 195 t b b;
#X obj 181 162 select LAYER;
#X obj 263 319 outlet;
#X obj 223 290 list split 1;
#X obj 100 118 list-drip;
#X connect 0 0 1 0;
#X connect 1 0 5 0;
#X connect 1 1 17 0;
#X connect 2 0 3 0;
#X connect 5 0 2 0;
#X connect 6 0 7 0;
#X connect 7 0 6 1;
#X connect 7 0 8 1;
#X connect 8 0 16 0;
#X connect 9 0 6 0;
#X connect 9 1 14 0;
#X connect 10 0 8 0;
#X connect 11 0 10 1;
#X connect 12 0 10 1;
#X connect 13 0 11 0;
#X connect 13 1 10 0;
#X connect 14 0 6 1;
#X connect 14 0 13 0;
#X connect 16 1 15 0;
#X connect 17 0 9 0;
#X connect 17 1 8 0;
#X connect 17 1 12 0;
#X restore 177 184 pd trigger;
#X obj 92 19 print input;
#X obj 33 50 route LAYERS PRINT TRIGGER SET-N TIMER-OFFSET, f 52;
#N canvas 841 144 565 603 set-n 0;
#X obj 60 45 inlet;
#X obj 60 314 cyclone/fromsymbol;
#X obj 60 366 s set-timer;
#X obj 60 389 print timer;
#X obj 60 93 list split 2;
#X obj 60 265 unpack s s;
#X obj 127 292 cyclone/fromsymbol;
#X obj 60 338 spigot;
#X obj 100 119 unpack s s s;
#X obj 140 165 cyclone/fromsymbol;
#X obj 181 143 cyclone/fromsymbol;
#X obj 100 187 cyclone/fromsymbol;
#X obj 100 212 pack f f f, f 12;
#X obj 100 236 outlet;
#X connect 0 0 4 0;
#X connect 1 0 7 0;
#X connect 4 0 5 0;
#X connect 4 1 8 0;
#X connect 5 0 1 0;
#X connect 5 1 6 0;
#X connect 6 0 7 1;
#X connect 8 0 11 0;
#X connect 8 1 9 0;
#X connect 8 2 10 0;
#X connect 9 0 12 1;
#X connect 10 0 12 2;
#X connect 11 0 12 0;
#X connect 12 0 13 0;
#X restore 249 110 pd set-n;
#X obj 249 137 route 0 1 2 3 4 5;
#X obj 196 652 sampler-cluster 1;
#X obj 215 629 sampler-cluster 2;
#X obj 235 606 sampler-cluster 3;
#X obj 254 583 sampler-cluster 4;
#X obj 273 560 sampler-cluster 5;
#X connect 0 0 12 2;
#X connect 1 0 12 3;
#X connect 2 0 12 0;
#X connect 3 0 12 4;
#X connect 4 1 22 0;
#X connect 4 2 23 0;
#X connect 4 3 24 0;
#X connect 4 4 25 0;
#X connect 4 5 26 0;
#X connect 5 0 16 0;
#X connect 5 0 19 0;
#X connect 7 0 12 5;
#X connect 8 0 12 6;
#X connect 9 0 12 7;
#X connect 10 0 12 9;
#X connect 11 0 2 0;
#X connect 11 1 12 1;
#X connect 11 2 0 0;
#X connect 11 3 1 0;
#X connect 11 4 3 0;
#X connect 11 5 7 0;
#X connect 11 6 8 0;
#X connect 11 7 9 0;
#X connect 11 8 12 8;
#X connect 11 9 10 0;
#X connect 11 10 13 0;
#X connect 12 0 4 0;
#X connect 13 0 12 10;
#X connect 14 0 15 0;
#X connect 17 0 11 0;
#X connect 19 1 6 0;
#X connect 19 2 17 0;
#X connect 19 3 20 0;
#X connect 19 4 14 0;
#X connect 20 0 21 0;
#X connect 21 1 22 1;
#X connect 21 2 23 1;
#X connect 21 3 24 1;
#X connect 21 4 25 1;
#X connect 21 5 26 1;
#X restore 328 241 pd magic;
#N canvas 574 260 450 300 midi 0;
#X floatatom 9 72 5 0 0 0 - - midi1 0;
#X obj 9 7 ctlin 7 1;
#X floatatom 78 72 5 0 0 0 - - midi2 0;
#X floatatom 147 72 5 0 0 0 - - midi3 0;
#X floatatom 216 72 5 0 0 0 - - midi4 0;
#X obj 78 7 ctlin 7 2;
#X obj 147 7 ctlin 7 3;
#X floatatom 285 72 5 0 0 0 - - midi5 0;
#X obj 9 33 / 127;
#X obj 78 33 / 127;
#X obj 147 33 / 127;
#X obj 216 33 / 127;
#X obj 285 33 / 127;
#X obj 216 7 ctlin 7 5;
#X obj 285 7 ctlin 7 6;
#X connect 1 0 8 0;
#X connect 5 0 9 0;
#X connect 6 0 10 0;
#X connect 8 0 0 0;
#X connect 9 0 2 0;
#X connect 10 0 3 0;
#X connect 11 0 4 0;
#X connect 12 0 7 0;
#X connect 13 0 11 0;
#X connect 14 0 12 0;
#X restore 14 307 pd midi;
#X msg 594 33 (swap-stored-file-list *layer1* *whispers*);
#X obj 594 81 s send-to-sc;
#X msg 594 57 (swap-stored-file-list *layer1* *breath*);
#N canvas 593 400 951 280 mixer-and-out 0;
#X obj 39 110 catch~ layer1;
#X obj 136 110 catch~ layer2;
#X obj 233 110 catch~ layer3;
#X obj 330 110 catch~ layer4;
#X obj 427 110 catch~ layer5;
#X obj 631 38 r start;
#X obj 631 64 select 1;
#X obj 39 136 *~;
#X obj 136 136 *~;
#X obj 233 136 *~;
#X obj 427 136 *~;
#X msg 631 90 1 100;
#X obj 631 116 line~;
#X text 699 56 start and stop gracefully;
#X obj 330 136 *~;
#X msg 684 90 0 500;
#X obj 40 162 mixer 1;
#X obj 137 162 mixer 2;
#X obj 234 162 mixer 3;
#X obj 331 162 mixer 4;
#X obj 428 161 mixer 5;
#X connect 0 0 7 0;
#X connect 1 0 8 0;
#X connect 2 0 9 0;
#X connect 3 0 14 0;
#X connect 4 0 10 0;
#X connect 5 0 6 0;
#X connect 6 0 11 0;
#X connect 6 1 15 0;
#X connect 7 0 16 0;
#X connect 8 0 17 0;
#X connect 9 0 18 0;
#X connect 10 0 20 0;
#X connect 11 0 12 0;
#X connect 12 0 7 1;
#X connect 12 0 8 1;
#X connect 12 0 9 1;
#X connect 12 0 10 1;
#X connect 12 0 14 1;
#X connect 14 0 19 0;
#X connect 15 0 12 0;
#X restore 14 329 pd mixer-and-out;
#X msg 719 81 (list 'print "test 123");
#N canvas 866 358 663 423 to-sc 0;
#X obj 401 212 outlet;
#X obj 24 111 r seed;
#X msg 24 137 (set-seed-to \$1);
#X msg 24 187 (set-loop \$1);
#X obj 24 161 r loop;
#X msg 23 236 (set-total-length \$1);
#X obj 23 210 r length;
#X obj 23 260 r reset;
#X obj 23 311 r sample-clouds;
#X msg 23 337 (set-use-sample-clouds \$1);
#X obj 401 120 pack f f f;
#X msg 401 146 (set-x-y-z \$1 \$2 \$3);
#X obj 430 72 t b f;
#X obj 474 72 t b f;
#X obj 401 46 r x;
#X obj 430 46 r y;
#X obj 474 46 r z;
#X obj 532 75 loadbang;
#X msg 532 101 0.5;
#X obj 25 39 r start;
#X msg 25 87 (set-start-stop \$1 \$2);
#X obj 25 63 pack f f;
#X obj 132 44 r timer;
#N canvas 714 329 1248 406 set-n 0;
#X obj 40 15 r n-1;
#X obj 40 41 t f b;
#X msg 72 67 1;
#X obj 83 41 t f b;
#X obj 126 41 t f b;
#X obj 169 41 t f b;
#X obj 212 41 t f b;
#X msg 115 67 2;
#X msg 158 67 3;
#X msg 201 67 4;
#X msg 244 67 5;
#X obj 83 15 r n-2;
#X obj 126 15 r n-3;
#X obj 169 15 r n-4;
#X obj 212 15 r n-5;
#X obj 86 237 outlet;
#X obj 218 105 r clock-1;
#X obj 287 105 r clock-2;
#X obj 356 105 r clock-3;
#X obj 425 105 r clock-4;
#X obj 494 105 r clock-5;
#X obj 200 134 f;
#X obj 269 134 f;
#X obj 476 134 f;
#X obj 407 134 f;
#X obj 338 134 f;
#X obj 152 160 r clock;
#X obj 86 185 pack f f f f;
#X obj 213 161 r timer;
#X msg 86 211 (set-n \$1 '\$2 *layers* \$3 \$4);
#X connect 0 0 1 0;
#X connect 1 0 27 0;
#X connect 1 1 2 0;
#X connect 2 0 21 0;
#X connect 2 0 27 1;
#X connect 3 0 27 0;
#X connect 3 1 7 0;
#X connect 4 0 27 0;
#X connect 4 1 8 0;
#X connect 5 0 27 0;
#X connect 5 1 9 0;
#X connect 6 0 27 0;
#X connect 6 1 10 0;
#X connect 7 0 22 0;
#X connect 7 0 27 1;
#X connect 8 0 25 0;
#X connect 8 0 27 1;
#X connect 9 0 24 0;
#X connect 9 0 27 1;
#X connect 10 0 23 0;
#X connect 10 0 27 1;
#X connect 11 0 3 0;
#X connect 12 0 4 0;
#X connect 13 0 5 0;
#X connect 14 0 6 0;
#X connect 16 0 21 1;
#X connect 17 0 22 1;
#X connect 18 0 25 1;
#X connect 19 0 24 1;
#X connect 20 0 23 1;
#X connect 26 0 27 2;
#X connect 27 0 29 0;
#X connect 28 0 27 3;
#X connect 29 0 15 0;
#X restore 313 116 pd set-n;
#X msg 23 288 (reload-layers t);
#X obj 24 360 r print-to-console;
#X msg 24 386 (set-print-to-console \$1);
#X connect 1 0 2 0;
#X connect 2 0 0 0;
#X connect 3 0 0 0;
#X connect 4 0 3 0;
#X connect 5 0 0 0;
#X connect 6 0 5 0;
#X connect 7 0 24 0;
#X connect 8 0 9 0;
#X connect 9 0 0 0;
#X connect 10 0 11 0;
#X connect 11 0 0 0;
#X connect 12 0 10 0;
#X connect 12 1 10 1;
#X connect 13 0 10 0;
#X connect 13 1 10 2;
#X connect 14 0 10 0;
#X connect 15 0 12 0;
#X connect 16 0 13 0;
#X connect 17 0 18 0;
#X connect 18 0 10 2;
#X connect 18 0 10 1;
#X connect 19 0 21 0;
#X connect 20 0 0 0;
#X connect 21 0 20 0;
#X connect 22 0 21 1;
#X connect 23 0 0 0;
#X connect 24 0 0 0;
#X connect 25 0 26 0;
#X connect 26 0 0 0;
#X restore 304 52 pd to-sc;
#N canvas 832 304 872 528 timer 0;
#X obj 50 59 r start;
#X floatatom 50 317 15 0 0 0 - - - 0;
#X obj 50 229 f 0;
#X obj 50 278 / 1000;
#X obj 50 448 s timer;
#X obj 146 48 inlet;
#X obj 244 48 inlet;
#X text 140 28 set time;
#X text 241 28 offset;
#X obj 146 70 r set-timer;
#X obj 244 73 r timer-offset;
#X obj 31 80 tgl 15 0 empty empty empty 17 7 0 10 #fcfcfc #000000 #000000 0 1;
#X obj 244 248 + 0;
#X obj 60 255 - 10;
#X obj 50 95 metro 10;
#X obj 109 428 bng 15 250 50 0 empty empty empty 17 7 0 10 #fcfcfc #000000 #000000;
#X obj 109 407 select 0;
#X obj 163 484 outlet;
#X obj 284 394 spigot;
#X msg 340 375 0;
#X msg 372 375 1;
#X obj 284 448 outlet;
#X floatatom 284 418 5 0 0 0 - - - 0;
#X floatatom 146 211 5 0 0 0 - - - 0;
#X msg 167 171 5000;
#X obj 116 196 bng 15 250 50 0 empty empty empty 17 7 0 10 #fcfcfc #000000 #000000;
#X obj 146 94 * 100;
#X obj 146 117 int;
#X obj 146 140 * 10;
#X obj 411 112 metro 10;
#X obj 411 76 r start;
#X floatatom 411 234 15 0 0 0 - - - 0;
#X obj 411 141 f 0;
#X obj 421 167 + 10;
#X msg 508 120 0;
#X obj 508 94 r reset;
#X obj 411 259 s clock;
#X obj 411 200 / 1000;
#X floatatom 163 317 15 0 0 0 - clock - 0;
#X obj 163 462 spigot;
#X msg 219 443 0;
#X msg 251 443 1;
#X connect 0 0 14 0;
#X connect 1 0 4 0;
#X connect 1 0 16 0;
#X connect 1 0 18 0;
#X connect 2 0 3 0;
#X connect 2 0 12 1;
#X connect 2 0 13 0;
#X connect 3 0 1 0;
#X connect 5 0 26 0;
#X connect 6 0 12 0;
#X connect 6 0 20 0;
#X connect 9 0 26 0;
#X connect 10 0 12 0;
#X connect 10 0 20 0;
#X connect 11 0 14 0;
#X connect 12 0 2 1;
#X connect 13 0 2 1;
#X connect 14 0 2 0;
#X connect 15 0 41 0;
#X connect 16 0 15 0;
#X connect 18 0 19 0;
#X connect 18 0 22 0;
#X connect 19 0 18 1;
#X connect 20 0 18 1;
#X connect 22 0 21 0;
#X connect 23 0 2 1;
#X connect 24 0 23 0;
#X connect 25 0 23 0;
#X connect 26 0 27 0;
#X connect 27 0 28 0;
#X connect 28 0 23 0;
#X connect 29 0 32 0;
#X connect 30 0 29 0;
#X connect 31 0 36 0;
#X connect 32 0 33 0;
#X connect 32 0 37 0;
#X connect 33 0 32 1;
#X connect 34 0 32 0;
#X connect 35 0 34 0;
#X connect 37 0 31 0;
#X connect 38 0 39 0;
#X connect 39 0 40 0;
#X connect 39 0 17 0;
#X connect 40 0 39 1;
#X connect 41 0 39 1;
#X coords 0 -1 1 1 220 35 1 50 300;
#X restore 7 11 pd timer;
#X msg 472 30 (print (+ 1 1));
#X msg 268 88 (current-timer '\$1);
#X msg 582 163 (pd-test);
#X msg 463 106 (list 'trigger '3 "E:/code/layers/samples/no-input/accents/accent5.wav" 4.6875 0 10 500 1 0 'ACCENT1 45 1), f 74;
#X msg 702 169 (list 'TRIGGER '3 "E:/code/layers/samples/phrases/drums/drumloops9.wav" 13.752 0 10 100 1 1 'DRUMLOOPS9 45 1);
#X msg 91 74 2;
#X msg 7 111 (next-trigger *layers* :current-time \$1);
#X obj 328 192 osc-sc-eval;
#X connect 2 0 3 0;
#X connect 4 0 3 0;
#X connect 6 0 3 0;
#X connect 7 0 16 0;
#X connect 8 0 15 0;
#X connect 8 1 10 0;
#X connect 9 0 3 0;
#X connect 10 0 16 0;
#X connect 11 0 3 0;
#X connect 12 0 3 0;
#X connect 13 0 3 0;
#X connect 14 0 15 0;
#X connect 15 0 16 0;
#X connect 16 0 0 0;
#X restore 380 55 pd subpatch;
#X obj 1 77 cnv 15 460 255 empty empty Layers 20 12 0 14 #b8b8b8 #404040 0;
#X obj 45 159 vu 15 120 meter1 empty -1 -8 0 10 #404040 #000000 1 0;
#X obj 19 151 vsl 15 128 0 1 0 0 fader1 midi1 empty 0 -9 0 10 #fcfcfc #000000 #000000 0 1;
#X obj 132 158 vu 15 120 meter2 empty -1 -8 0 10 #404040 #000000 1 0;
#X obj 107 151 vsl 15 128 0 1 0 0 fader2 midi2 empty 0 -9 0 10 #fcfcfc #000000 #000000 0 1;
#X obj 220 158 vu 15 120 meter3 empty -1 -8 0 10 #404040 #000000 1 0;
#X obj 195 151 vsl 15 128 0 1 0 0 fader3 midi3 empty 0 -9 0 10 #fcfcfc #000000 #000000 0 1;
#X obj 308 158 vu 15 120 meter4 empty -1 -8 0 10 #404040 #000000 1 0;
#X obj 283 151 vsl 15 128 0 1 0 0 fader4 midi4 empty 0 -9 0 10 #fcfcfc #000000 #000000 0 1;
#X obj 396 158 vu 15 120 meter5 empty -1 -8 0 10 #404040 #000000 1 0;
#X obj 371 151 vsl 15 128 0 1 0 0 fader5 midi5 empty 0 -9 0 10 #fcfcfc #000000 #000000 0 1;
#X symbolatom 19 103 12 0 0 2 - id1 - 0;
#X symbolatom 107 103 12 0 0 2 - id2 - 0;
#X symbolatom 195 103 12 0 0 2 - id3 - 0;
#X symbolatom 283 103 12 0 0 2 - id4 - 0;
#X symbolatom 371 103 12 0 0 2 - id5 - 0;
#X obj 19 288 tgl 15 0 mute-1 init empty 17 7 0 10 #fcfcfc #000000 #000000 0 1;
#X obj 107 288 tgl 15 0 mute-2 init empty 17 7 0 10 #fcfcfc #000000 #000000 0 1;
#X obj 195 288 tgl 15 0 mute-3 init empty 17 7 0 10 #fcfcfc #000000 #000000 0 1;
#X obj 283 288 tgl 15 0 mute-4 init empty 17 7 0 10 #fcfcfc #000000 #000000 0 1;
#X obj 371 288 tgl 15 0 mute-5 init empty 17 7 0 10 #fcfcfc #000000 #000000 0 1;
#X obj 1 333 cnv 15 460 50 empty empty Pause_structure_for_each_layer 20 12 0 14 #606060 #fcfcfc 0;
#X obj 19 358 tgl 15 0 stop-1 init empty 17 7 0 10 #fcfcfc #000000 #000000 0 1;
#X obj 107 359 tgl 15 0 stop-2 init empty 17 7 0 10 #fcfcfc #000000 #000000 0 1;
#X obj 195 359 tgl 15 0 stop-3 init empty 17 7 0 10 #fcfcfc #000000 #000000 0 1;
#X obj 283 359 tgl 15 0 stop-4 init empty 17 7 0 10 #fcfcfc #000000 #000000 0 1;
#X obj 371 359 tgl 15 0 stop-5 init empty 17 7 0 10 #fcfcfc #000000 #000000 0 1;
#X obj 19 308 hradio 15 1 0 5 n-1 empty empty 0 -8 0 10 #fcfcfc #000000 #000000 0;
#X obj 107 308 hradio 15 1 0 5 n-2 empty empty 0 -8 0 10 #fcfcfc #000000 #000000 0;
#X obj 196 308 hradio 15 1 0 5 n-3 empty empty 0 -8 0 10 #fcfcfc #000000 #000000 0;
#X obj 283 308 hradio 15 1 0 5 n-4 empty empty 0 -8 0 10 #fcfcfc #000000 #000000 0;
#X obj 371 308 hradio 15 1 0 5 n-5 empty empty 0 -8 0 10 #fcfcfc #000000 #000000 0;
#X floatatom 19 126 10 0 0 0 - clock-1 - 0;
#X floatatom 106 126 10 0 0 0 - clock-2 - 0;
#X floatatom 194 126 10 0 0 0 - clock-3 - 0;
#X floatatom 282 126 10 0 0 0 - clock-4 - 0;
#X floatatom 370 126 10 0 0 0 - clock-5 - 0;
#X obj 434 357 tgl 25 0 directout empty empty 17 7 0 10 #dcdcdc #000000 #000000 0 1;
#X obj 371 334 cnv 15 10 10 empty empty directout 20 12 0 14 #606060 #fcfcfc 0;
#X obj 462 1 cnv 15 200 382 empty empty empty 20 12 0 14 #404040 #404040 0;
#X obj 503 99 vsl 15 128 0 1 0 0 x empty empty 0 -9 0 10 #dcdcdc #000000 #000000 0 1;
#X obj 559 99 vsl 15 128 0 1 0 0 y empty empty 0 -9 0 10 #dcdcdc #000000 #000000 0 1;
#X obj 615 99 vsl 15 128 0 1 0 0 z empty empty 0 -9 0 10 #dcdcdc #000000 #000000 0 1;
#X obj 485 230 cnv 15 5 5 empty empty X 20 12 0 14 #404040 #fcfcfc 0;
#X obj 541 230 cnv 15 5 5 empty empty Y 20 12 0 14 #404040 #fcfcfc 0;
#X obj 598 230 cnv 15 5 5 empty empty Z 20 12 0 14 #404040 #fcfcfc 0;
#X obj 397 26 tgl 25 0 print-to-console empty empty 17 7 0 10 #fcfcfc #000000 #000000 0 1;
#X obj 360 1 cnv 15 10 10 empty empty printing: 20 12 0 14 #606060 #fcfcfc 0;
#X obj 547 38 tgl 25 0 sample-clouds empty empty 17 7 0 10 #fcfcfc #000000 #000000 0 1;
#X obj 521 13 cnv 15 10 10 empty empty use-clouds 20 12 0 14 #404040 #fcfcfc 0;
#X msg 170 27 500;
#X connect 0 0 1 0;
#X connect 3 0 2 0;
#X connect 5 0 0 0;
#X connect 5 1 3 0;
#X connect 6 0 5 0;
#X connect 7 0 19 0;
#X connect 7 0 73 0;
#X connect 19 0 9 0;
#X connect 20 0 21 0;
#X connect 73 0 8 0;
