#N canvas 347 168 1315 534 12;
#X obj 114 117 spigot;
#X obj 153 102 tgl 15 0 empty empty empty 17 7 0 10 -262144 -1 -1 1
1;
#X obj 656 117 spigot;
#X obj 695 102 tgl 15 0 empty empty empty 17 7 0 10 -262144 -1 -1 0
1;
#X obj 715 81 loadbang;
#X obj 369 53 bng 15 250 50 0 empty empty empty 17 7 0 10 -262144 -1
-1;
#X obj 114 19 inlet;
#X msg 118 337 start;
#X msg 179 308 stop;
#X obj 114 494 dac~;
#X obj 114 357 readsf~ 2, f 16;
#X obj 179 216 * 1000;
#X obj 179 239 t b f;
#X obj 179 262 del;
#X obj 338 283 bng 15 250 50 0 empty empty empty 17 7 0 10 -262144
-1 -1;
#X obj 215 455 r directout;
#X obj 114 476 *~;
#X obj 168 476 *~;
#X symbolatom 440 204 10 0 0 0 - - -;
#X obj 531 219 f \$1;
#X obj 531 190 loadbang;
#X msg 531 254 play-\$1;
#X obj 531 280 symbol;
#X obj 338 301 s;
#X msg 531 357 set layer\$1;
#X obj 328 433 throw~;
#X msg 291 246 0 \$1;
#X obj 291 222 f;
#X obj 179 285 del;
#X msg 660 337 start;
#X msg 722 308 stop;
#X obj 656 494 dac~;
#X obj 656 357 readsf~ 2, f 16;
#X obj 722 216 * 1000;
#X obj 722 239 t b f;
#X obj 722 262 del;
#X obj 883 283 bng 15 250 50 0 empty empty empty 17 7 0 10 -262144
-1 -1;
#X obj 757 456 r directout;
#X obj 656 476 *~;
#X obj 710 476 *~;
#X symbolatom 989 204 10 0 0 0 - - -;
#X obj 883 301 s;
#X obj 852 432 throw~;
#X msg 837 246 0 \$1;
#X obj 837 222 f;
#X obj 722 285 del;
#X obj 440 229 s;
#X msg 481 240 id\$1;
#X obj 481 266 symbol;
#X obj 989 229 s;
#X obj 94 274 pack s f;
#X obj 636 274 pack s f;
#X msg 114 249 1 100;
#X msg 656 249 1 100;
#X obj 291 270 line~;
#X obj 169 385 *~;
#X obj 114 385 *~;
#X obj 656 384 *~;
#X obj 711 384 *~;
#X obj 837 270 line~;
#X obj 169 411 *~;
#X obj 114 411 *~;
#X obj 374 365 f;
#X floatatom 374 391 5 0 0 0 - - -;
#X obj 656 410 *~;
#X obj 711 410 *~;
#X obj 922 364 f;
#X floatatom 922 390 5 0 0 0 - - -;
#X obj 297 340 tgl 15 0 empty empty empty 17 7 0 10 -262144 -1 -1 0
1;
#X obj 258 357 spigot;
#X obj 829 340 tgl 15 0 empty empty empty 17 7 0 10 -262144 -1 -1 0
1;
#X obj 790 357 spigot;
#X msg 94 308 open \$1;
#X msg 637 308 open \$1;
#X obj 251 393 bng 15 250 50 0 empty empty empty 17 7 0 10 -262144
-1 -1;
#X symbolatom 94 221 10 0 0 0 - - -;
#X symbolatom 636 223 10 0 0 0 - - -;
#X obj 114 141 unpack s f f f f f s f, f 55;
#X obj 656 141 unpack s f f f f f s f, f 56;
#X obj 496 165 s panning-\$1;
#X obj 1045 165 s panning-\$1;
#X floatatom 446 446 5 0 0 0 - - -;
#X obj 223 167 * 48000;
#X connect 0 0 77 0;
#X connect 1 0 0 1;
#X connect 2 0 78 0;
#X connect 3 0 2 1;
#X connect 4 0 3 0;
#X connect 5 0 1 0;
#X connect 5 0 3 0;
#X connect 6 0 5 0;
#X connect 6 0 0 0;
#X connect 6 0 2 0;
#X connect 7 0 10 0;
#X connect 8 0 10 0;
#X connect 10 0 56 0;
#X connect 10 1 55 0;
#X connect 10 2 69 0;
#X connect 10 2 74 0;
#X connect 11 0 12 0;
#X connect 12 0 13 0;
#X connect 12 1 13 1;
#X connect 13 0 27 0;
#X connect 13 0 14 0;
#X connect 13 0 28 0;
#X connect 14 0 23 0;
#X connect 15 0 16 1;
#X connect 15 0 17 1;
#X connect 16 0 9 0;
#X connect 17 0 9 1;
#X connect 18 0 46 0;
#X connect 19 0 21 0;
#X connect 19 0 24 0;
#X connect 19 0 47 0;
#X connect 20 0 19 0;
#X connect 21 0 22 0;
#X connect 22 0 23 1;
#X connect 22 0 41 1;
#X connect 24 0 25 0;
#X connect 24 0 42 0;
#X connect 26 0 54 0;
#X connect 27 0 26 0;
#X connect 28 0 8 0;
#X connect 29 0 32 0;
#X connect 30 0 32 0;
#X connect 32 0 57 0;
#X connect 32 1 58 0;
#X connect 32 2 71 0;
#X connect 33 0 34 0;
#X connect 34 0 35 0;
#X connect 34 1 35 1;
#X connect 35 0 44 0;
#X connect 35 0 36 0;
#X connect 35 0 45 0;
#X connect 36 0 41 0;
#X connect 37 0 38 1;
#X connect 37 0 39 1;
#X connect 38 0 31 0;
#X connect 39 0 31 1;
#X connect 40 0 49 0;
#X connect 43 0 59 0;
#X connect 44 0 43 0;
#X connect 45 0 30 0;
#X connect 47 0 48 0;
#X connect 48 0 46 1;
#X connect 48 0 49 1;
#X connect 50 0 72 0;
#X connect 51 0 73 0;
#X connect 52 0 54 0;
#X connect 53 0 59 0;
#X connect 54 0 55 1;
#X connect 54 0 56 1;
#X connect 55 0 60 0;
#X connect 56 0 61 0;
#X connect 57 0 64 0;
#X connect 58 0 65 0;
#X connect 59 0 58 1;
#X connect 59 0 57 1;
#X connect 60 0 17 0;
#X connect 60 0 25 0;
#X connect 61 0 16 0;
#X connect 61 0 25 0;
#X connect 62 0 63 0;
#X connect 63 0 60 1;
#X connect 63 0 61 1;
#X connect 64 0 38 0;
#X connect 64 0 42 0;
#X connect 65 0 39 0;
#X connect 65 0 42 0;
#X connect 66 0 67 0;
#X connect 67 0 65 1;
#X connect 67 0 64 1;
#X connect 68 0 69 1;
#X connect 69 0 75 0;
#X connect 70 0 71 1;
#X connect 71 0 76 0;
#X connect 72 0 10 0;
#X connect 72 0 7 0;
#X connect 73 0 32 0;
#X connect 73 0 29 0;
#X connect 75 0 50 0;
#X connect 76 0 51 0;
#X connect 77 0 52 0;
#X connect 77 0 75 0;
#X connect 77 1 11 0;
#X connect 77 2 82 0;
#X connect 77 3 27 1;
#X connect 77 3 28 1;
#X connect 77 4 62 0;
#X connect 77 5 68 0;
#X connect 77 6 18 0;
#X connect 77 7 79 0;
#X connect 78 0 53 0;
#X connect 78 0 76 0;
#X connect 78 1 33 0;
#X connect 78 2 51 1;
#X connect 78 3 44 1;
#X connect 78 3 45 1;
#X connect 78 4 66 0;
#X connect 78 5 70 0;
#X connect 78 6 40 0;
#X connect 78 7 80 0;
#X connect 82 0 50 1;
#X connect 82 0 81 0;
