#N canvas 73 221 696 393 12;
#X obj 147 8 loadbang;
#X floatatom 170 51 5 0 0 0 - - length;
#X floatatom 114 47 5 0 0 0 - - seed;
#X obj 1 1 cnv 15 460 75 empty empty empty 20 12 0 14 -99865 -66577
0;
#X obj 22 26 tgl 25 0 start empty empty 17 7 0 10 -262144 -1 -1 0 1
;
#X obj 93 1 cnv 15 10 10 empty empty seed 20 12 0 14 -99865 -262144
0;
#X obj 1 1 cnv 15 10 10 empty empty start/stop 20 12 0 14 -99865 -262144
0;
#X obj 211 1 cnv 15 10 10 empty empty reset 20 12 0 14 -99865 -262144
0;
#X obj 309 26 tgl 25 0 loop empty empty 17 7 0 10 -262144 -1 -1 0 1
;
#X obj 287 1 cnv 15 10 10 empty empty loop 20 12 0 14 -99865 -262144
0;
#X obj 233 27 bng 25 250 50 0 reset empty empty 17 7 0 10 -262144 -1
-1;
#X obj 385 26 tgl 25 0 sample-clouds empty empty 17 7 0 10 -262144
-1 -1 0 1;
#X obj 359 1 cnv 15 10 10 empty empty use-clouds 20 12 0 14 -99865
-262144 0;
#X obj 150 1 cnv 15 10 10 empty empty length 20 12 0 14 -99865 -262144
0;
#X msg 170 29 240;
#X msg 113 29 23;
#X obj 56 201 loadbang;
#X obj 56 222 s init;
#N canvas 496 275 1584 484 subpatch 0;
#X obj 256 130 osc-sc-eval-5000;
#N canvas 812 107 1041 848 magic 1;
#X obj 224 448 cyclone/fromsymbol;
#X obj 248 421 cyclone/fromsymbol;
#X obj 176 474 cyclone/fromsymbol;
#X obj 272 394 cyclone/fromsymbol;
#X obj 176 542 route 0 1 2 3 4 5;
#X obj 33 19 inlet;
#X obj 104 700 print lisp;
#X obj 297 368 cyclone/fromsymbol;
#X obj 321 341 cyclone/fromsymbol;
#X obj 345 314 cyclone/fromsymbol;
#X obj 393 288 cyclone/fromsymbol;
#X obj 195 672 sample-pair 1;
#X obj 214 649 sample-pair 2;
#X obj 234 626 sample-pair 3;
#X obj 253 603 sample-pair 4;
#X obj 272 580 sample-pair 5;
#X obj 176 234 unpack s s s s s s s s s s s, f 35;
#X obj 176 512 pack f s f f f f f f s f f, f 35;
#X obj 418 263 cyclone/fromsymbol;
#X obj 248 129 cyclone/fromsymbol;
#X obj 248 181 route 0 1 2 3 4 5;
#X obj 248 80 unpack s s;
#X obj 315 105 cyclone/fromsymbol;
#X obj 248 155 pack f f, f 10;
#X obj 589 105 cyclone/fromsymbol;
#X obj 589 135 s timer-offset;
#X obj 33 103 s sc;
#X obj 33 50 route LAYERS PRINT TRIGGER SET-N TIMER TIMER-OFFSET,
f 62;
#N canvas 313 164 450 408 trigger 0;
#X obj 50 42 inlet;
#X obj 50 66 unpack s s s s s s;
#X obj 50 209 cyclone/fromsymbol;
#X obj 74 187 cyclone/fromsymbol;
#X obj 99 165 cyclone/fromsymbol;
#X obj 123 143 cyclone/fromsymbol;
#X obj 148 121 cyclone/fromsymbol;
#X obj 173 99 cyclone/fromsymbol;
#X obj 50 233 s set-timer;
#X msg 74 257 (play-layer '\$1 *layers*);
#X obj 74 281 s send-to-sc;
#X connect 0 0 1 0;
#X connect 1 0 2 0;
#X connect 1 1 3 0;
#X connect 1 2 4 0;
#X connect 1 3 5 0;
#X connect 1 4 6 0;
#X connect 1 5 7 0;
#X connect 2 0 8 0;
#X connect 3 0 9 0;
#X connect 4 0 9 0;
#X connect 5 0 9 0;
#X connect 6 0 9 0;
#X connect 7 0 9 0;
#X connect 9 0 10 0;
#X restore 588 209 pd trigger;
#X connect 0 0 17 2;
#X connect 1 0 17 3;
#X connect 2 0 17 0;
#X connect 3 0 17 4;
#X connect 4 1 11 0;
#X connect 4 2 12 0;
#X connect 4 3 13 0;
#X connect 4 4 14 0;
#X connect 4 5 15 0;
#X connect 5 0 26 0;
#X connect 5 0 27 0;
#X connect 7 0 17 5;
#X connect 8 0 17 6;
#X connect 9 0 17 7;
#X connect 10 0 17 9;
#X connect 16 0 2 0;
#X connect 16 1 17 1;
#X connect 16 2 0 0;
#X connect 16 3 1 0;
#X connect 16 4 3 0;
#X connect 16 5 7 0;
#X connect 16 6 8 0;
#X connect 16 7 9 0;
#X connect 16 8 17 8;
#X connect 16 9 10 0;
#X connect 16 10 18 0;
#X connect 17 0 4 0;
#X connect 18 0 17 10;
#X connect 19 0 23 0;
#X connect 20 1 11 1;
#X connect 20 2 12 1;
#X connect 20 3 13 1;
#X connect 20 4 14 1;
#X connect 20 5 15 1;
#X connect 21 0 19 0;
#X connect 21 1 22 0;
#X connect 22 0 23 1;
#X connect 23 0 20 0;
#X connect 24 0 25 0;
#X connect 27 1 6 0;
#X connect 27 2 16 0;
#X connect 27 3 21 0;
#X connect 27 4 28 0;
#X connect 27 5 24 0;
#X restore 256 179 pd magic;
#X obj 1220 132 r play-1;
#X obj 1220 155 r play-2;
#X obj 1029 151 bng 15 250 50 0 empty empty empty 17 7 0 10 -262144
-1 -1;
#X obj 1220 178 r play-3;
#X obj 1293 153 spigot;
#X obj 1293 176 spigot;
#X obj 1293 199 spigot;
#X obj 1029 128 select 1;
#X msg 1029 195 1;
#X msg 1029 218 2;
#X msg 1029 241 3;
#X msg 1029 264 4;
#X msg 1029 287 5;
#X obj 1293 222 spigot;
#X obj 1293 245 spigot;
#X obj 1220 201 r play-4;
#X obj 1220 224 r play-5;
#N canvas 574 260 450 300 midi 0;
#X floatatom 9 72 5 0 0 0 - - midi1;
#X obj 9 7 ctlin 7 1;
#X floatatom 78 72 5 0 0 0 - - midi2;
#X floatatom 147 72 5 0 0 0 - - midi3;
#X floatatom 216 72 5 0 0 0 - - midi4;
#X obj 78 7 ctlin 7 2;
#X obj 147 7 ctlin 7 3;
#X floatatom 285 72 5 0 0 0 - - midi5;
#X obj 9 33 / 127;
#X obj 78 33 / 127;
#X obj 147 33 / 127;
#X obj 216 33 / 127;
#X obj 285 33 / 127;
#X obj 216 7 ctlin 7 5;
#X obj 285 7 ctlin 7 6;
#X connect 1 0 8 0;
#X connect 5 0 9 0;
#X connect 6 0 10 0;
#X connect 8 0 0 0;
#X connect 9 0 2 0;
#X connect 10 0 3 0;
#X connect 11 0 4 0;
#X connect 12 0 7 0;
#X connect 13 0 11 0;
#X connect 14 0 12 0;
#X restore 1028 33 pd midi;
#X obj 1347 174 spigot;
#X obj 1347 197 spigot;
#X obj 1347 220 spigot;
#X obj 1347 243 spigot;
#X obj 1347 266 spigot;
#X obj 1397 153 r stop-1;
#X obj 1397 176 r stop-2;
#X obj 1397 199 r stop-3;
#X obj 1397 222 r stop-4;
#X obj 1397 245 r stop-5;
#X msg 560 33 (swap-stored-file-list *layer1* *whispers*);
#X obj 560 81 s send-to-sc;
#X msg 560 57 (swap-stored-file-list *layer1* *breath*);
#N canvas 528 232 450 300 clock 0;
#X obj 28 64 metro 10;
#X obj 28 28 r start;
#X floatatom 28 186 15 0 0 0 - - -;
#X obj 28 93 f 0;
#X obj 38 119 + 10;
#X msg 125 72 0;
#X obj 125 46 r reset;
#X obj 28 211 s clock;
#X obj 28 152 / 1000;
#X connect 0 0 3 0;
#X connect 1 0 0 0;
#X connect 2 0 7 0;
#X connect 3 0 4 0;
#X connect 3 0 8 0;
#X connect 4 0 3 1;
#X connect 5 0 3 0;
#X connect 6 0 5 0;
#X connect 8 0 2 0;
#X restore 1028 58 pd clock;
#N canvas 375 287 1248 406 set-n 0;
#X obj 40 15 r n-1;
#X obj 40 41 t f b;
#X msg 72 67 1;
#X obj 83 41 t f b;
#X obj 126 41 t f b;
#X obj 169 41 t f b;
#X obj 212 41 t f b;
#X msg 115 67 2;
#X msg 158 67 3;
#X msg 201 67 4;
#X msg 244 67 5;
#X obj 83 15 r n-2;
#X obj 126 15 r n-3;
#X obj 169 15 r n-4;
#X obj 212 15 r n-5;
#X obj 86 237 outlet;
#X obj 218 105 r clock-1;
#X obj 287 105 r clock-2;
#X obj 356 105 r clock-3;
#X obj 425 105 r clock-4;
#X obj 494 105 r clock-5;
#X obj 200 134 f;
#X obj 269 134 f;
#X obj 476 134 f;
#X obj 407 134 f;
#X obj 338 134 f;
#X obj 13 143 r clock;
#X obj 86 185 pack f f f;
#X msg 86 211 (set-n \$1 '\$2 *layers* \$3);
#X connect 0 0 1 0;
#X connect 1 0 27 0;
#X connect 1 1 2 0;
#X connect 2 0 21 0;
#X connect 2 0 27 1;
#X connect 3 0 27 0;
#X connect 3 1 7 0;
#X connect 4 0 27 0;
#X connect 4 1 8 0;
#X connect 5 0 27 0;
#X connect 5 1 9 0;
#X connect 6 0 27 0;
#X connect 6 1 10 0;
#X connect 7 0 22 0;
#X connect 7 0 27 1;
#X connect 8 0 25 0;
#X connect 8 0 27 1;
#X connect 9 0 24 0;
#X connect 9 0 27 1;
#X connect 10 0 23 0;
#X connect 10 0 27 1;
#X connect 11 0 3 0;
#X connect 12 0 4 0;
#X connect 13 0 5 0;
#X connect 14 0 6 0;
#X connect 16 0 21 1;
#X connect 17 0 22 1;
#X connect 18 0 25 1;
#X connect 19 0 24 1;
#X connect 20 0 23 1;
#X connect 26 0 27 2;
#X connect 27 0 28 0;
#X connect 28 0 15 0;
#X restore 1028 381 pd set-n;
#N canvas 476 244 951 280 mixer-and-out 0;
#X obj 39 110 catch~ layer1;
#X obj 136 110 catch~ layer2;
#X obj 233 110 catch~ layer3;
#X obj 330 110 catch~ layer4;
#X obj 427 110 catch~ layer5;
#X obj 631 38 r start;
#X obj 631 64 select 1;
#X obj 39 136 *~;
#X obj 136 136 *~;
#X obj 233 136 *~;
#X obj 427 136 *~;
#X msg 631 90 1 100;
#X obj 631 116 line~;
#X text 699 56 start and stop gracefully;
#X obj 330 136 *~;
#X msg 684 90 0 500;
#X obj 40 162 mixer 1;
#X obj 137 162 mixer 2;
#X obj 234 162 mixer 3;
#X obj 331 162 mixer 4;
#X obj 428 161 mixer 5;
#X connect 0 0 7 0;
#X connect 1 0 8 0;
#X connect 2 0 9 0;
#X connect 3 0 14 0;
#X connect 4 0 10 0;
#X connect 5 0 6 0;
#X connect 6 0 11 0;
#X connect 6 1 15 0;
#X connect 7 0 16 0;
#X connect 8 0 17 0;
#X connect 9 0 18 0;
#X connect 10 0 20 0;
#X connect 11 0 12 0;
#X connect 12 0 7 1;
#X connect 12 0 8 1;
#X connect 12 0 9 1;
#X connect 12 0 10 1;
#X connect 12 0 14 1;
#X connect 14 0 19 0;
#X connect 15 0 12 0;
#X restore 1028 83 pd mixer-and-out;
#X msg 429 106 (list '1 "E:/code/layers/samples/no-input/accents/accent5.wav"
4.6875 0 10 500 1 0 'ACCENT1 45 1), f 74;
#X msg 685 81 (list 'print "test 123");
#X obj 1156 155 bng 15 250 50 0 empty empty empty 17 7 0 10 -262144
-1 -1;
#X obj 1029 311 pack f;
#X msg 1029 337 (play-layer '\$1 *layers*);
#N canvas 615 263 640 378 to-sc 0;
#X obj 401 212 outlet;
#X obj 24 65 r seed;
#X msg 24 91 (set-seed-to \$1);
#X msg 24 141 (set-loop \$1);
#X obj 24 115 r loop;
#X msg 23 190 (set-total-length \$1);
#X obj 23 164 r length;
#X obj 23 214 r reset;
#X msg 23 242 (reload-layers);
#X obj 23 265 r sample-clouds;
#X msg 23 291 (set-use-sample-clouds \$1);
#X obj 401 120 pack f f f;
#X msg 401 146 (set-x-y-z \$1 \$2 \$3);
#X obj 430 72 t b f;
#X obj 474 72 t b f;
#X obj 401 46 r x;
#X obj 430 46 r y;
#X obj 474 46 r z;
#X obj 532 75 loadbang;
#X msg 532 101 0.5;
#X obj 25 18 r start;
#X msg 25 41 (set-start-stop \$1);
#X connect 1 0 2 0;
#X connect 2 0 0 0;
#X connect 3 0 0 0;
#X connect 4 0 3 0;
#X connect 5 0 0 0;
#X connect 6 0 5 0;
#X connect 7 0 8 0;
#X connect 8 0 0 0;
#X connect 9 0 10 0;
#X connect 10 0 0 0;
#X connect 11 0 12 0;
#X connect 12 0 0 0;
#X connect 13 0 11 0;
#X connect 13 1 11 1;
#X connect 14 0 11 0;
#X connect 14 1 11 2;
#X connect 15 0 11 0;
#X connect 16 0 13 0;
#X connect 17 0 14 0;
#X connect 18 0 19 0;
#X connect 19 0 11 2;
#X connect 19 0 11 1;
#X connect 20 0 21 0;
#X connect 21 0 0 0;
#X restore 256 52 pd to-sc;
#N canvas 463 281 1093 481 old 0;
#N canvas 264 73 749 848 magic 0;
#X obj 191 448 cyclone/fromsymbol;
#X obj 215 421 cyclone/fromsymbol;
#X obj 143 474 cyclone/fromsymbol;
#X obj 239 394 cyclone/fromsymbol;
#X obj 143 542 route 0 1 2 3 4 5;
#X obj 33 19 inlet;
#X obj 88 700 print lisp;
#X obj 264 368 cyclone/fromsymbol;
#X obj 288 341 cyclone/fromsymbol;
#X obj 312 314 cyclone/fromsymbol;
#X obj 360 288 cyclone/fromsymbol;
#X obj 162 672 sample-pair 1;
#X obj 181 649 sample-pair 2;
#X obj 201 626 sample-pair 3;
#X obj 220 603 sample-pair 4;
#X obj 239 580 sample-pair 5;
#X obj 143 234 unpack s s s s s s s s s s s, f 35;
#X obj 143 512 pack f s f f f f f f s f f, f 35;
#X obj 385 263 cyclone/fromsymbol;
#X obj 33 50 route LAYERS PRINT TRIGGER SET-N;
#X obj 198 129 cyclone/fromsymbol;
#X obj 198 181 route 0 1 2 3 4 5;
#X obj 198 80 unpack s s;
#X obj 265 105 cyclone/fromsymbol;
#X obj 198 155 pack f f, f 10;
#X connect 0 0 17 2;
#X connect 1 0 17 3;
#X connect 2 0 17 0;
#X connect 3 0 17 4;
#X connect 4 1 11 0;
#X connect 4 2 12 0;
#X connect 4 3 13 0;
#X connect 4 4 14 0;
#X connect 4 5 15 0;
#X connect 5 0 19 0;
#X connect 7 0 17 5;
#X connect 8 0 17 6;
#X connect 9 0 17 7;
#X connect 10 0 17 9;
#X connect 16 0 2 0;
#X connect 16 1 17 1;
#X connect 16 2 0 0;
#X connect 16 3 1 0;
#X connect 16 4 3 0;
#X connect 16 5 7 0;
#X connect 16 6 8 0;
#X connect 16 7 9 0;
#X connect 16 8 17 8;
#X connect 16 9 10 0;
#X connect 16 10 18 0;
#X connect 17 0 4 0;
#X connect 18 0 17 10;
#X connect 19 1 6 0;
#X connect 19 2 16 0;
#X connect 19 3 22 0;
#X connect 20 0 24 0;
#X connect 21 1 11 1;
#X connect 21 2 12 1;
#X connect 21 3 13 1;
#X connect 21 4 14 1;
#X connect 21 5 15 1;
#X connect 22 0 20 0;
#X connect 22 1 23 0;
#X connect 23 0 24 1;
#X connect 24 0 21 0;
#X restore 161 364 pd magic;
#X obj 161 330 s sc;
#X obj 352 27 r play-1;
#X obj 352 50 r play-2;
#X obj 161 46 bng 15 250 50 0 empty empty empty 17 7 0 10 -262144 -1
-1;
#X obj 352 73 r play-3;
#X obj 425 48 spigot;
#X obj 464 2 r start;
#X obj 425 71 spigot;
#X obj 425 94 spigot;
#X obj 161 23 select 1;
#X msg 464 285 (set-start-stop \$1);
#X msg 161 90 1;
#X msg 161 113 2;
#X msg 161 136 3;
#X msg 161 159 4;
#X msg 161 182 5;
#X obj 425 117 spigot;
#X obj 425 140 spigot;
#X obj 352 96 r play-4;
#X obj 352 119 r play-5;
#N canvas 574 260 450 300 midi 0;
#X floatatom 9 72 5 0 0 0 - - midi1;
#X obj 9 7 ctlin 7 1;
#X floatatom 78 72 5 0 0 0 - - midi2;
#X floatatom 147 72 5 0 0 0 - - midi3;
#X floatatom 216 72 5 0 0 0 - - midi4;
#X obj 78 7 ctlin 7 2;
#X obj 147 7 ctlin 7 3;
#X floatatom 285 72 5 0 0 0 - - midi5;
#X obj 9 33 / 127;
#X obj 78 33 / 127;
#X obj 147 33 / 127;
#X obj 216 33 / 127;
#X obj 285 33 / 127;
#X obj 216 7 ctlin 7 5;
#X obj 285 7 ctlin 7 6;
#X connect 1 0 8 0;
#X connect 5 0 9 0;
#X connect 6 0 10 0;
#X connect 8 0 0 0;
#X connect 9 0 2 0;
#X connect 10 0 3 0;
#X connect 11 0 4 0;
#X connect 12 0 7 0;
#X connect 13 0 11 0;
#X connect 14 0 12 0;
#X restore 30 19 pd midi;
#X obj 479 69 spigot;
#X obj 479 92 spigot;
#X obj 479 115 spigot;
#X obj 479 138 spigot;
#X obj 479 161 spigot;
#X obj 529 48 r stop-1;
#X obj 529 71 r stop-2;
#X obj 529 94 r stop-3;
#X obj 529 117 r stop-4;
#X obj 529 140 r stop-5;
#X msg 826 40 (swap-stored-file-list *layer1* *whispers*);
#X obj 826 88 s send-to-sc;
#X msg 826 64 (swap-stored-file-list *layer1* *breath*);
#X obj 249 349 print;
#X msg 617 285 (print (+ 1 1));
#N canvas 457 250 450 300 clock 0;
#X obj 28 64 metro 10;
#X obj 28 28 r start;
#X floatatom 28 186 15 0 0 0 - - -;
#X obj 28 93 f 0;
#X obj 38 119 + 10;
#X msg 125 72 0;
#X obj 125 46 r reset;
#X obj 28 211 s clock;
#X obj 28 152 / 1000;
#X connect 0 0 3 0;
#X connect 1 0 0 0;
#X connect 2 0 7 0;
#X connect 3 0 4 0;
#X connect 3 0 8 0;
#X connect 4 0 3 1;
#X connect 5 0 3 0;
#X connect 6 0 5 0;
#X connect 8 0 2 0;
#X restore 30 44 pd clock;
#N canvas 778 265 1248 406 set-n 0;
#X obj 40 15 r n-1;
#X obj 40 41 t f b;
#X msg 72 67 1;
#X obj 83 41 t f b;
#X obj 126 41 t f b;
#X obj 169 41 t f b;
#X obj 212 41 t f b;
#X msg 115 67 2;
#X msg 158 67 3;
#X msg 201 67 4;
#X msg 244 67 5;
#X obj 83 15 r n-2;
#X obj 126 15 r n-3;
#X obj 169 15 r n-4;
#X obj 212 15 r n-5;
#X obj 86 237 outlet;
#X obj 218 105 r clock-1;
#X obj 287 105 r clock-2;
#X obj 356 105 r clock-3;
#X obj 425 105 r clock-4;
#X obj 494 105 r clock-5;
#X obj 200 134 f;
#X obj 269 134 f;
#X obj 476 134 f;
#X obj 407 134 f;
#X obj 338 134 f;
#X obj 13 143 r clock;
#X obj 86 185 pack f f f;
#X msg 86 211 (set-n \$1 '\$2 *layers* \$3);
#X connect 0 0 1 0;
#X connect 1 0 27 0;
#X connect 1 1 2 0;
#X connect 2 0 21 0;
#X connect 2 0 27 1;
#X connect 3 0 27 0;
#X connect 3 1 7 0;
#X connect 4 0 27 0;
#X connect 4 1 8 0;
#X connect 5 0 27 0;
#X connect 5 1 9 0;
#X connect 6 0 27 0;
#X connect 6 1 10 0;
#X connect 7 0 22 0;
#X connect 7 0 27 1;
#X connect 8 0 25 0;
#X connect 8 0 27 1;
#X connect 9 0 24 0;
#X connect 9 0 27 1;
#X connect 10 0 23 0;
#X connect 10 0 27 1;
#X connect 11 0 3 0;
#X connect 12 0 4 0;
#X connect 13 0 5 0;
#X connect 14 0 6 0;
#X connect 16 0 21 1;
#X connect 17 0 22 1;
#X connect 18 0 25 1;
#X connect 19 0 24 1;
#X connect 20 0 23 1;
#X connect 26 0 27 2;
#X connect 27 0 28 0;
#X connect 28 0 15 0;
#X restore 396 285 pd set-n;
#N canvas 476 244 951 280 mixer-and-out 0;
#X obj 39 110 catch~ layer1;
#X obj 136 110 catch~ layer2;
#X obj 233 110 catch~ layer3;
#X obj 330 110 catch~ layer4;
#X obj 427 110 catch~ layer5;
#X obj 631 38 r start;
#X obj 631 64 select 1;
#X obj 39 136 *~;
#X obj 136 136 *~;
#X obj 233 136 *~;
#X obj 427 136 *~;
#X msg 631 90 1 100;
#X obj 631 116 line~;
#X text 699 56 start and stop gracefully;
#X obj 330 136 *~;
#X msg 684 90 0 500;
#X obj 40 162 mixer 1;
#X obj 137 162 mixer 2;
#X obj 234 162 mixer 3;
#X obj 331 162 mixer 4;
#X obj 428 161 mixer 5;
#X connect 0 0 7 0;
#X connect 1 0 8 0;
#X connect 2 0 9 0;
#X connect 3 0 14 0;
#X connect 4 0 10 0;
#X connect 5 0 6 0;
#X connect 6 0 11 0;
#X connect 6 1 15 0;
#X connect 7 0 16 0;
#X connect 8 0 17 0;
#X connect 9 0 18 0;
#X connect 10 0 20 0;
#X connect 11 0 12 0;
#X connect 12 0 7 1;
#X connect 12 0 8 1;
#X connect 12 0 9 1;
#X connect 12 0 10 1;
#X connect 12 0 14 1;
#X connect 14 0 19 0;
#X connect 15 0 12 0;
#X restore 30 69 pd mixer-and-out;
#X msg 878 269 (list '1 "E:/code/layers/samples/no-input/accents/accent5.wav"
4.6875 0 10 500 1 0 'ACCENT1 45 1), f 74;
#X msg 881 313 (list 'print "test 123");
#X obj 288 50 bng 15 250 50 0 empty empty empty 17 7 0 10 -262144 -1
-1;
#X obj 161 206 pack f;
#X msg 161 232 (play-layer '\$1 *layers*);
#N canvas 1084 268 598 378 to-sc 0;
#X obj 61 240 outlet;
#X obj 13 9 r seed;
#X msg 13 35 (set-seed-to \$1);
#X msg 140 34 (set-loop \$1);
#X obj 140 8 r loop;
#X msg 244 34 (set-total-length \$1);
#X obj 244 8 r length;
#X obj 256 66 r reset;
#X msg 256 94 (reload-layers);
#X obj 268 166 r sample-clouds;
#X msg 268 192 (set-use-sample-clouds \$1);
#X obj 197 307 pack f f f;
#X msg 197 333 (set-x-y-z \$1 \$2 \$3);
#X obj 226 259 t b f;
#X obj 270 259 t b f;
#X obj 197 233 r x;
#X obj 226 233 r y;
#X obj 270 233 r z;
#X obj 328 260 loadbang;
#X msg 328 286 0.5;
#X connect 1 0 2 0;
#X connect 2 0 0 0;
#X connect 3 0 0 0;
#X connect 4 0 3 0;
#X connect 5 0 0 0;
#X connect 6 0 5 0;
#X connect 7 0 8 0;
#X connect 8 0 0 0;
#X connect 9 0 10 0;
#X connect 10 0 0 0;
#X connect 11 0 12 0;
#X connect 12 0 0 0;
#X connect 13 0 11 0;
#X connect 13 1 11 1;
#X connect 14 0 11 0;
#X connect 14 1 11 2;
#X connect 15 0 11 0;
#X connect 16 0 13 0;
#X connect 17 0 14 0;
#X connect 18 0 19 0;
#X connect 19 0 11 2;
#X connect 19 0 11 1;
#X restore 185 271 pd to-sc;
#N canvas 0 50 450 300 sc 0;
#X obj 13 73 inlet;
#X obj 35 156 outlet;
#X restore 161 306 pd sc;
#X connect 2 0 6 0;
#X connect 2 0 42 0;
#X connect 3 0 8 0;
#X connect 4 0 12 0;
#X connect 4 0 13 0;
#X connect 4 0 14 0;
#X connect 4 0 15 0;
#X connect 4 0 16 0;
#X connect 5 0 9 0;
#X connect 6 0 22 0;
#X connect 7 0 6 1;
#X connect 7 0 8 1;
#X connect 7 0 9 1;
#X connect 7 0 11 0;
#X connect 7 0 10 0;
#X connect 7 0 17 1;
#X connect 7 0 18 1;
#X connect 8 0 23 0;
#X connect 9 0 24 0;
#X connect 10 0 4 0;
#X connect 11 0 46 0;
#X connect 12 0 43 0;
#X connect 13 0 43 0;
#X connect 14 0 43 0;
#X connect 15 0 43 0;
#X connect 16 0 43 0;
#X connect 17 0 25 0;
#X connect 18 0 26 0;
#X connect 19 0 17 0;
#X connect 20 0 18 0;
#X connect 22 0 12 0;
#X connect 23 0 13 0;
#X connect 24 0 14 0;
#X connect 25 0 15 0;
#X connect 26 0 16 0;
#X connect 27 0 22 1;
#X connect 27 0 22 0;
#X connect 28 0 23 1;
#X connect 28 0 23 0;
#X connect 29 0 24 1;
#X connect 29 0 24 0;
#X connect 30 0 25 1;
#X connect 30 0 25 0;
#X connect 31 0 26 1;
#X connect 31 0 26 0;
#X connect 32 0 33 0;
#X connect 34 0 33 0;
#X connect 36 0 46 0;
#X connect 38 0 46 0;
#X connect 43 0 44 0;
#X connect 44 0 46 0;
#X connect 45 0 46 0;
#X restore 1156 47 pd old;
#N canvas 2143 283 615 382 timer 0;
#X obj 50 59 r start;
#X floatatom 50 217 15 0 0 0 - - -;
#X obj 50 124 f 0;
#X obj 50 183 / 1000;
#X obj 50 289 s timer;
#X obj 146 48 inlet;
#X obj 244 48 inlet;
#X text 140 28 set time;
#X text 241 28 offset;
#X obj 146 73 r set-timer;
#X obj 244 73 r timer-offset;
#X obj 31 80 tgl 15 0 empty empty empty 17 7 0 10 -262144 -1 -1 0 1
;
#X obj 244 143 + 0;
#X floatatom 146 106 5 0 0 0 - - -;
#X obj 60 150 - 10;
#X obj 50 95 metro 10;
#X obj 110 289 s trigger;
#X msg 173 161 5000;
#X obj 109 272 bng 15 250 50 0 empty empty empty 17 7 0 10 -262144
-1 -1;
#X obj 109 248 select 0;
#X obj 179 289 outlet;
#X obj 228 235 spigot;
#X msg 284 216 0;
#X msg 316 216 1;
#X obj 228 289 outlet;
#X floatatom 228 259 5 0 0 0 - - -;
#X connect 0 0 15 0;
#X connect 1 0 4 0;
#X connect 1 0 19 0;
#X connect 1 0 21 0;
#X connect 2 0 3 0;
#X connect 2 0 12 1;
#X connect 2 0 14 0;
#X connect 3 0 1 0;
#X connect 5 0 13 0;
#X connect 6 0 12 0;
#X connect 6 0 23 0;
#X connect 9 0 13 0;
#X connect 10 0 12 0;
#X connect 10 0 23 0;
#X connect 11 0 15 0;
#X connect 12 0 2 1;
#X connect 13 0 2 1;
#X connect 14 0 2 1;
#X connect 15 0 2 0;
#X connect 17 0 13 0;
#X connect 18 0 16 0;
#X connect 18 0 20 0;
#X connect 19 0 18 0;
#X connect 21 0 22 0;
#X connect 21 0 25 0;
#X connect 22 0 21 1;
#X connect 23 0 21 1;
#X connect 25 0 24 0;
#X coords 0 -1 1 1 110 35 1 50 200;
#X restore 7 11 pd timer;
#X msg 438 30 (print (+ 1 1));
#X msg 110 88 (current-timer '\$1);
#X msg 7 111 (next-trigger *layers*);
#X msg 548 163 (pd-test);
#X msg 350 302 (PRINT hey);
#X msg 434 260 TIMER 0.585938 4 3;
#X connect 0 0 1 0;
#X connect 2 0 6 0;
#X connect 2 0 38 0;
#X connect 3 0 7 0;
#X connect 4 0 10 0;
#X connect 4 0 11 0;
#X connect 4 0 12 0;
#X connect 4 0 13 0;
#X connect 4 0 14 0;
#X connect 5 0 8 0;
#X connect 6 0 20 0;
#X connect 7 0 21 0;
#X connect 8 0 22 0;
#X connect 9 0 4 0;
#X connect 10 0 39 0;
#X connect 11 0 39 0;
#X connect 12 0 39 0;
#X connect 13 0 39 0;
#X connect 14 0 39 0;
#X connect 15 0 23 0;
#X connect 16 0 24 0;
#X connect 17 0 15 0;
#X connect 18 0 16 0;
#X connect 20 0 10 0;
#X connect 21 0 11 0;
#X connect 22 0 12 0;
#X connect 23 0 13 0;
#X connect 24 0 14 0;
#X connect 25 0 20 1;
#X connect 25 0 20 0;
#X connect 26 0 21 1;
#X connect 26 0 21 0;
#X connect 27 0 22 1;
#X connect 27 0 22 0;
#X connect 28 0 23 1;
#X connect 28 0 23 0;
#X connect 29 0 24 1;
#X connect 29 0 24 0;
#X connect 30 0 31 0;
#X connect 32 0 31 0;
#X connect 36 0 31 0;
#X connect 37 0 31 0;
#X connect 39 0 40 0;
#X connect 41 0 0 0;
#X connect 43 0 46 0;
#X connect 43 1 45 0;
#X connect 44 0 31 0;
#X connect 45 0 0 0;
#X connect 46 0 0 0;
#X connect 47 0 31 0;
#X connect 48 0 1 0;
#X connect 49 0 1 0;
#X restore 380 55 pd subpatch;
#X obj 1 77 cnv 15 460 255 empty empty Layers 20 12 0 14 -191407 -66577
0;
#X obj 45 159 vu 15 120 meter1 empty -1 -8 0 10 -66577 -1 1 0;
#X obj 19 151 vsl 15 128 0 1 0 0 fader1 midi1 empty 0 -9 0 10 -262144
-1 -1 0 1;
#X obj 132 158 vu 15 120 meter2 empty -1 -8 0 10 -66577 -1 1 0;
#X obj 107 151 vsl 15 128 0 1 0 0 fader2 midi2 empty 0 -9 0 10 -262144
-1 -1 0 1;
#X obj 220 158 vu 15 120 meter3 empty -1 -8 0 10 -66577 -1 1 0;
#X obj 195 151 vsl 15 128 0 1 0 0 fader3 midi3 empty 0 -9 0 10 -262144
-1 -1 0 1;
#X obj 308 158 vu 15 120 meter4 empty -1 -8 0 10 -66577 -1 1 0;
#X obj 283 151 vsl 15 128 0 1 0 0 fader4 midi4 empty 0 -9 0 10 -262144
-1 -1 0 1;
#X obj 396 158 vu 15 120 meter5 empty -1 -8 0 10 -66577 -1 1 0;
#X obj 371 151 vsl 15 128 0 1 0 0 fader5 midi5 empty 0 -9 0 10 -262144
-1 -1 0 1;
#X symbolatom 19 103 12 0 0 2 - id1 -;
#X symbolatom 107 103 12 0 0 2 - id2 -;
#X symbolatom 195 103 12 0 0 2 - id3 -;
#X symbolatom 283 103 12 0 0 2 - id4 -;
#X symbolatom 371 103 12 0 0 2 - id5 -;
#X obj 19 288 tgl 15 0 mute-1 init empty 17 7 0 10 -262144 -1 -1 1
1;
#X obj 107 288 tgl 15 0 mute-2 init empty 17 7 0 10 -262144 -1 -1 1
1;
#X obj 195 288 tgl 15 0 mute-3 init empty 17 7 0 10 -262144 -1 -1 1
1;
#X obj 283 288 tgl 15 0 mute-4 init empty 17 7 0 10 -262144 -1 -1 1
1;
#X obj 371 288 tgl 15 0 mute-5 init empty 17 7 0 10 -262144 -1 -1 1
1;
#X obj 1 333 cnv 15 460 50 empty empty Pause_structure_for_each_layer
20 12 0 14 -99865 -262144 0;
#X obj 19 358 tgl 15 0 stop-1 init empty 17 7 0 10 -262144 -1 -1 1
1;
#X obj 107 359 tgl 15 0 stop-2 init empty 17 7 0 10 -262144 -1 -1 1
1;
#X obj 195 359 tgl 15 0 stop-3 init empty 17 7 0 10 -262144 -1 -1 1
1;
#X obj 283 359 tgl 15 0 stop-4 init empty 17 7 0 10 -262144 -1 -1 1
1;
#X obj 371 359 tgl 15 0 stop-5 init empty 17 7 0 10 -262144 -1 -1 1
1;
#X obj 19 308 hradio 15 1 0 5 n-1 empty empty 0 -8 0 10 -262144 -1
-1 1;
#X obj 107 308 hradio 15 1 0 5 n-2 empty empty 0 -8 0 10 -262144 -1
-1 2;
#X obj 196 308 hradio 15 1 0 5 n-3 empty empty 0 -8 0 10 -262144 -1
-1 0;
#X obj 283 308 hradio 15 1 0 5 n-4 empty empty 0 -8 0 10 -262144 -1
-1 0;
#X obj 371 308 hradio 15 1 0 5 n-5 empty empty 0 -8 0 10 -262144 -1
-1 2;
#X floatatom 19 126 10 0 0 0 - clock-1 -;
#X floatatom 106 126 10 0 0 0 - clock-2 -;
#X floatatom 194 126 10 0 0 0 - clock-3 -;
#X floatatom 282 126 10 0 0 0 - clock-4 -;
#X floatatom 370 126 10 0 0 0 - clock-5 -;
#X obj 434 357 tgl 25 0 directout empty empty 17 7 0 10 -228856 -1
-1 0 1;
#X obj 371 334 cnv 15 10 10 empty empty directout 20 12 0 14 -99865
-262144 0;
#X obj 462 1 cnv 15 200 382 empty empty empty 20 12 0 14 -66577 -66577
0;
#X obj 503 99 vsl 15 128 0 1 0 0 x empty empty 0 -9 0 10 -228856 -1
-1 0 1;
#X obj 559 99 vsl 15 128 0 1 0 0 y empty empty 0 -9 0 10 -228856 -1
-1 0 1;
#X obj 615 99 vsl 15 128 0 1 0 0 z empty empty 0 -9 0 10 -228856 -1
-1 0 1;
#X obj 485 230 cnv 15 5 5 empty empty X 20 12 0 14 -66577 -262144 0
;
#X obj 541 230 cnv 15 5 5 empty empty Y 20 12 0 14 -66577 -262144 0
;
#X obj 598 230 cnv 15 5 5 empty empty Z 20 12 0 14 -66577 -262144 0
;
#X connect 0 0 15 0;
#X connect 0 0 14 0;
#X connect 14 0 1 0;
#X connect 15 0 2 0;
#X connect 16 0 17 0;
