#N canvas 2089 186 1194 618 12;
#X msg 106 343 start;
#X msg 192 201 stop;
#X obj 106 516 dac~;
#X obj 106 377 readsf~ 2, f 16;
#X obj 192 109 * 1000;
#X obj 192 132 t b f;
#X obj 192 155 del;
#X obj 664 176 bng 15 250 50 0 empty empty empty 17 7 0 10 -262144
-1 -1;
#X obj 202 475 r directout;
#X obj 106 496 *~;
#X obj 160 496 *~;
#X symbolatom 709 313 10 0 0 0 - - -;
#X msg 914 319 play-\$1;
#X obj 914 345 symbol;
#X obj 664 366 s;
#X msg 914 430 set layer\$1;
#X obj 320 451 throw~;
#X msg 433 200 0 \$1;
#X obj 433 176 f;
#X obj 192 178 del;
#X obj 709 338 s;
#X msg 727 261 id\$1;
#X obj 727 287 symbol;
#X obj 106 229 pack s f;
#X obj 433 385 line~;
#X obj 161 405 *~;
#X obj 106 405 *~;
#X obj 161 431 *~;
#X obj 106 431 *~;
#X obj 537 385 f;
#X floatatom 537 411 5 0 0 0 - - -;
#X obj 623 359 tgl 15 0 empty empty empty 17 7 0 10 -262144 -1 -1 0
1;
#X obj 584 398 spigot;
#X msg 106 252 open \$1;
#X obj 214 398 bng 15 250 50 0 empty empty empty 17 7 0 10 -262144
-1 -1;
#X symbolatom 106 175 10 0 0 0 - - -;
#X obj 278 208 * 48000;
#X obj 106 32 inlet;
#X obj 796 293 line;
#X msg 796 269 \$1 100;
#X obj 106 57 unpack s f f f f f f s f, f 99;
#X msg 364 364 1 \$1;
#X obj 859 296 symbol;
#X msg 859 272 panning-\$1;
#X obj 796 317 s;
#X obj 914 240 f;
#X obj 914 211 inlet;
#X text 112 79 file;
#X text 288 77 start;
#X text 370 79 attack;
#X text 462 79 decay;
#X text 553 79 amp;
#X text 634 80 loop?;
#X text 718 80 id;
#X text 809 77 pan;
#X msg 192 281 0;
#X obj 24 53 bng 15 250 50 0 empty empty empty 17 7 0 10 -262144 -1
-1;
#X obj 106 302 del 0;
#X msg 192 311 10;
#X obj 278 180 +;
#X msg 24 364 0 10;
#X obj 24 323 spigot;
#X obj 63 302 tgl 15 0 empty empty empty 17 7 0 10 -262144 -1 -1 0
1;
#X obj 24 347 bng 15 250 50 0 empty empty empty 17 7 0 10 -262144 -1
-1;
#X text 21 564 if a new sample is triggered whil something is still
playing \, prevent cracks (delay start \, quickly end playing sample)
;
#X text 196 79 length;
#X obj 106 280 bng 15 250 50 0 empty empty empty 17 7 0 10 -262144
-1 -1;
#X obj 364 328 f;
#X obj 364 276 t b f;
#X obj 364 302 del 0;
#X obj 296 302 / 1000;
#X connect 0 0 3 0;
#X connect 0 0 58 0;
#X connect 1 0 3 0;
#X connect 1 0 55 0;
#X connect 3 0 26 0;
#X connect 3 1 25 0;
#X connect 3 2 32 0;
#X connect 3 2 34 0;
#X connect 4 0 5 0;
#X connect 5 0 6 0;
#X connect 5 1 6 1;
#X connect 6 0 18 0;
#X connect 6 0 7 0;
#X connect 6 0 19 0;
#X connect 7 0 14 0;
#X connect 8 0 9 1;
#X connect 8 0 10 1;
#X connect 9 0 2 0;
#X connect 10 0 2 1;
#X connect 11 0 20 0;
#X connect 12 0 13 0;
#X connect 13 0 14 1;
#X connect 15 0 16 0;
#X connect 17 0 24 0;
#X connect 18 0 17 0;
#X connect 19 0 1 0;
#X connect 21 0 22 0;
#X connect 22 0 20 1;
#X connect 23 0 33 0;
#X connect 24 0 25 1;
#X connect 24 0 26 1;
#X connect 25 0 27 0;
#X connect 26 0 28 0;
#X connect 27 0 10 0;
#X connect 27 0 16 0;
#X connect 28 0 9 0;
#X connect 28 0 16 0;
#X connect 29 0 30 0;
#X connect 30 0 27 1;
#X connect 30 0 28 1;
#X connect 31 0 32 1;
#X connect 32 0 35 0;
#X connect 33 0 3 0;
#X connect 33 0 66 0;
#X connect 35 0 23 0;
#X connect 36 0 23 1;
#X connect 37 0 40 0;
#X connect 37 0 56 0;
#X connect 38 0 44 0;
#X connect 39 0 38 0;
#X connect 40 0 35 0;
#X connect 40 1 4 0;
#X connect 40 2 59 0;
#X connect 40 3 68 0;
#X connect 40 4 19 1;
#X connect 40 4 18 1;
#X connect 40 5 29 0;
#X connect 40 6 31 0;
#X connect 40 7 11 0;
#X connect 40 8 39 0;
#X connect 41 0 24 0;
#X connect 42 0 44 1;
#X connect 43 0 42 0;
#X connect 45 0 12 0;
#X connect 45 0 15 0;
#X connect 45 0 21 0;
#X connect 45 0 43 0;
#X connect 46 0 45 0;
#X connect 55 0 57 1;
#X connect 55 0 62 0;
#X connect 55 0 69 1;
#X connect 55 0 70 0;
#X connect 56 0 61 0;
#X connect 57 0 0 0;
#X connect 58 0 57 1;
#X connect 58 0 62 0;
#X connect 58 0 69 1;
#X connect 58 0 70 0;
#X connect 59 0 36 0;
#X connect 60 0 24 0;
#X connect 61 0 63 0;
#X connect 62 0 61 1;
#X connect 63 0 60 0;
#X connect 66 0 57 0;
#X connect 67 0 41 0;
#X connect 68 0 69 0;
#X connect 68 1 67 1;
#X connect 69 0 67 0;
#X connect 70 0 59 1;
