#N canvas 1991 106 1275 762 12;
#X obj 116 19 inlet;
#X obj 116 44 unpack s f f f f f f s f, f 117;
#X text 122 66 file;
#X text 335 66 start;
#X text 428 67 attack;
#X text 539 69 decay;
#X text 638 68 amp;
#X text 738 67 loop?;
#X text 838 69 id;
#X text 944 68 pan;
#X text 231 67 length;
#X obj 116 207 del 0;
#X obj 116 239 t b b;
#X obj 160 206 pack s f;
#X msg 160 234 set open \$1 \$2;
#X msg 160 258 open E:/code/layers/samples/one-shots/drums/kick1.wav
14400;
#X obj 160 611 readsf~ 2, f 16;
#X symbolatom 830 549 10 0 0 0 - - -;
#X msg 1050 555 play-\$1;
#X obj 1050 581 symbol;
#X msg 1050 666 set layer\$1;
#X obj 766 685 throw~;
#X obj 830 574 s;
#X msg 848 495 id\$1;
#X obj 848 523 symbol;
#X obj 215 639 *~;
#X obj 160 639 *~;
#X obj 215 665 *~;
#X obj 160 665 *~;
#X obj 269 695 bng 15 250 50 0 empty empty empty 17 7 0 10 -262144
-1 -1;
#X obj 995 532 symbol;
#X msg 995 508 panning-\$1;
#X obj 932 553 s;
#X obj 1050 476 f;
#X obj 1050 447 inlet;
#X obj 116 91 t b s b, f 13;
#X obj 218 91 * 1000;
#X obj 116 318 bng 15 250 50 0 empty empty empty 17 7 0 10 -262144
-1 -1;
#X msg 116 521 start;
#X obj 58 142 / 1000;
#X msg 58 517 0;
#X msg 200 498 stop;
#X text 293 392 length;
#X text 295 432 decay;
#X obj 345 456 bng 15 250 50 0 empty empty empty 17 7 0 10 -262144
-1 -1;
#X obj 200 471 del 5;
#X obj 422 540 bng 15 250 50 0 empty empty empty 17 7 0 10 -262144
-1 -1;
#X msg 422 600 1 10;
#X obj 291 619 line~;
#X obj 356 138 spigot;
#X obj 58 97 tgl 15 0 empty empty empty 17 7 0 10 -262144 -1 -1 0 1
;
#X obj 320 161 +;
#X obj 320 187 * 48000;
#X msg 422 487 set 1 \$1;
#X msg 345 600 0 5;
#X msg 524 487 set 0 \$1;
#X obj 524 416 bng 15 250 50 0 empty empty empty 17 7 0 10 -262144
-1 -1;
#X obj 626 593 f;
#X obj 626 645 line~;
#X obj 728 695 tgl 15 0 empty empty empty 17 7 0 10 -262144 -1 -1 0
1;
#X obj 24 710 spigot;
#X text 1100 446 sampler id input;
#X obj 770 600 s;
#X obj 770 431 bng 15 250 50 0 empty empty empty 17 7 0 10 -262144
-1 -1;
#X obj 385 473 bng 15 250 50 0 empty empty empty 17 7 0 10 -262144
-1 -1;
#X floatatom 10 171 5 0 0 0 - - -;
#X msg 58 540 5;
#X msg 524 600 0 500;
#X obj 524 208 moses 5;
#X msg 524 234 5;
#X msg 626 619 \$1 30;
#N canvas 421 321 592 398 timer 0;
#X obj 83 239 outlet;
#X obj 10 9 inlet;
#X floatatom 165 202 10 0 0 0 - - -;
#X obj 101 9 inlet;
#X text 144 9 length;
#X text 52 7 start;
#X obj 10 69 tgl 15 0 empty empty empty 17 7 0 10 -262144 -1 -1 0 1
;
#X obj 83 109 f;
#X obj 165 155 / 1000;
#X msg 10 35 1;
#X msg 46 35 0;
#X floatatom 115 44 5 0 0 0 - - -;
#X obj 226 9 inlet;
#X text 274 8 incf;
#X obj 83 134 moses 0;
#X obj 226 108 +;
#X obj 170 44 bng 15 250 50 0 empty empty empty 17 7 0 10 -262144 -1
-1;
#X obj 226 35 * 1000;
#X obj 10 88 metro 10;
#X obj 111 109 - 10;
#X msg 339 80 0;
#X obj 339 11 r start;
#X obj 339 37 select 0;
#X obj 339 62 bng 15 250 50 0 empty empty empty 17 7 0 10 -262144 -1
-1;
#X connect 1 0 9 0;
#X connect 3 0 7 1;
#X connect 3 0 11 0;
#X connect 6 0 18 0;
#X connect 7 0 14 0;
#X connect 7 0 15 1;
#X connect 7 0 19 0;
#X connect 8 0 2 0;
#X connect 9 0 6 0;
#X connect 10 0 6 0;
#X connect 10 0 15 0;
#X connect 11 0 7 1;
#X connect 12 0 17 0;
#X connect 14 0 0 0;
#X connect 14 0 10 0;
#X connect 14 1 8 0;
#X connect 15 0 7 1;
#X connect 16 0 11 0;
#X connect 17 0 15 0;
#X connect 18 0 7 0;
#X connect 19 0 7 1;
#X connect 20 0 7 0;
#X connect 21 0 22 0;
#X connect 22 0 23 0;
#X connect 23 0 20 0;
#X coords 0 -1 1 1 140 25 1 100 200;
#X restore 152 391 pd timer;
#X obj 24 239 t b b;
#X obj 285 348 inlet;
#N canvas 168 247 592 398 timer 0;
#X obj 83 239 outlet;
#X obj 10 9 inlet;
#X floatatom 165 202 10 0 0 0 - - -;
#X obj 101 9 inlet;
#X text 144 9 length;
#X text 52 7 start;
#X obj 10 69 tgl 15 0 empty empty empty 17 7 0 10 -262144 -1 -1 0 1
;
#X obj 83 109 f;
#X obj 165 155 / 1000;
#X msg 10 35 1;
#X msg 46 35 0;
#X floatatom 115 44 5 0 0 0 - - -;
#X obj 226 9 inlet;
#X text 274 8 incf;
#X obj 10 88 metro 10;
#X obj 111 109 - 10;
#X obj 83 134 moses 0;
#X obj 226 108 +;
#X connect 1 0 9 0;
#X connect 3 0 7 1;
#X connect 3 0 11 0;
#X connect 6 0 14 0;
#X connect 7 0 15 0;
#X connect 7 0 16 0;
#X connect 7 0 17 1;
#X connect 8 0 2 0;
#X connect 9 0 6 0;
#X connect 10 0 6 0;
#X connect 12 0 17 0;
#X connect 14 0 7 0;
#X connect 15 0 7 1;
#X connect 16 0 0 0;
#X connect 16 0 10 0;
#X connect 16 1 8 0;
#X connect 17 0 7 1;
#X coords 0 -1 1 1 140 25 1 100 200;
#X restore 151 431 pd timer;
#X obj 355 360 r start;
#X obj 355 386 select 0;
#X connect 0 0 1 0;
#X connect 1 0 35 0;
#X connect 1 1 36 0;
#X connect 1 2 51 0;
#X connect 1 3 53 0;
#X connect 1 4 68 0;
#X connect 1 5 57 0;
#X connect 1 6 59 0;
#X connect 1 7 17 0;
#X connect 1 8 32 0;
#X connect 11 0 12 0;
#X connect 12 0 37 0;
#X connect 12 1 15 0;
#X connect 13 0 14 0;
#X connect 14 0 15 0;
#X connect 15 0 16 0;
#X connect 16 0 26 0;
#X connect 16 1 25 0;
#X connect 16 2 29 0;
#X connect 17 0 22 0;
#X connect 18 0 19 0;
#X connect 19 0 62 1;
#X connect 20 0 21 0;
#X connect 23 0 24 0;
#X connect 24 0 22 1;
#X connect 25 0 27 0;
#X connect 26 0 28 0;
#X connect 27 0 21 0;
#X connect 28 0 21 0;
#X connect 29 0 60 0;
#X connect 30 0 32 1;
#X connect 31 0 30 0;
#X connect 33 0 18 0;
#X connect 33 0 20 0;
#X connect 33 0 23 0;
#X connect 33 0 31 0;
#X connect 34 0 33 0;
#X connect 35 0 11 0;
#X connect 35 1 13 0;
#X connect 35 2 49 0;
#X connect 36 0 71 1;
#X connect 37 0 38 0;
#X connect 37 0 71 0;
#X connect 38 0 16 0;
#X connect 38 0 66 0;
#X connect 38 0 46 0;
#X connect 39 0 51 1;
#X connect 40 0 65 0;
#X connect 41 0 40 0;
#X connect 41 0 16 0;
#X connect 44 0 45 0;
#X connect 44 0 54 0;
#X connect 45 0 41 0;
#X connect 46 0 47 0;
#X connect 47 0 48 0;
#X connect 48 0 25 1;
#X connect 48 0 26 1;
#X connect 49 0 64 0;
#X connect 50 0 49 1;
#X connect 51 0 52 0;
#X connect 52 0 13 1;
#X connect 53 0 47 0;
#X connect 54 0 48 0;
#X connect 55 0 67 0;
#X connect 56 0 67 0;
#X connect 56 0 63 0;
#X connect 56 0 74 0;
#X connect 57 0 70 0;
#X connect 58 0 27 1;
#X connect 58 0 28 1;
#X connect 59 0 60 1;
#X connect 60 0 72 0;
#X connect 63 0 62 0;
#X connect 64 0 54 0;
#X connect 65 0 39 0;
#X connect 65 0 50 0;
#X connect 65 0 11 1;
#X connect 66 0 65 0;
#X connect 67 0 48 0;
#X connect 68 0 69 0;
#X connect 68 1 55 0;
#X connect 68 1 74 1;
#X connect 69 0 55 0;
#X connect 69 0 74 1;
#X connect 70 0 58 0;
#X connect 71 0 56 0;
#X connect 72 0 38 0;
#X connect 72 1 15 0;
#X connect 73 0 71 2;
#X connect 73 0 74 2;
#X connect 74 0 44 0;
#X connect 75 0 76 0;
#X connect 76 0 44 0;
