#N canvas 565 103 1261 808 12;
#X obj 116 19 inlet;
#X obj 116 44 unpack s f f f f f f s f, f 117;
#X text 122 66 file;
#X text 335 66 start;
#X text 428 67 attack;
#X text 539 69 decay;
#X text 638 68 amp;
#X text 738 67 loop?;
#X text 838 69 id;
#X text 928 68 pan;
#X text 231 67 length;
#X obj 116 209 del 0;
#X obj 116 239 t b b;
#X obj 160 208 pack s f;
#X msg 160 234 set open \$1 \$2;
#X msg 160 260 open E:/code/layers/samples/no-input/accents/accent9.wav
240;
#X obj 160 682 readsf~ 2, f 16;
#X symbolatom 830 620 10 0 0 0 - - -;
#X msg 1050 626 play-\$1;
#X obj 1050 652 symbol;
#X msg 1050 737 set layer\$1;
#X obj 766 758 throw~;
#X obj 830 645 s;
#X msg 848 568 id\$1;
#X obj 848 594 symbol;
#X obj 215 710 *~;
#X obj 160 710 *~;
#X obj 215 736 *~;
#X obj 160 736 *~;
#X obj 269 766 bng 15 250 50 0 empty empty empty 17 7 0 10 -262144
-1 -1;
#X obj 995 603 symbol;
#X msg 995 579 panning-\$1;
#X obj 932 624 s;
#X obj 1050 547 f;
#X obj 1050 518 inlet;
#X obj 116 91 t b s b, f 13;
#X obj 218 91 * 1000;
#X obj 116 318 bng 15 250 50 0 empty empty empty 17 7 0 10 -262144
-1 -1;
#X msg 116 453 start;
#X obj 58 140 / 1000;
#X msg 58 451 0;
#X msg 200 430 stop;
#X obj 200 333 del;
#X obj 200 369 del;
#X text 228 333 length;
#X text 232 370 decay;
#X obj 345 390 bng 15 250 50 0 empty empty empty 17 7 0 10 -262144
-1 -1;
#X obj 200 405 del 5;
#X obj 422 474 bng 15 250 50 0 empty empty empty 17 7 0 10 -262144
-1 -1;
#X msg 422 669 1 10;
#X obj 291 690 line~;
#X obj 345 112 spigot;
#X obj 58 97 tgl 15 0 empty empty empty 17 7 0 10 -262144 -1 -1 0 1
;
#X obj 320 161 +;
#X obj 320 187 * 48000;
#X msg 422 421 set 1 \$1;
#X msg 345 669 0 5;
#X msg 524 669 0 500;
#X msg 524 421 set 0 \$1;
#X obj 524 354 bng 15 250 50 0 empty empty empty 17 7 0 10 -262144
-1 -1;
#X obj 626 664 f;
#X msg 626 690 \$1 10;
#X obj 626 716 line~;
#X obj 728 766 tgl 15 0 empty empty empty 17 7 0 10 -262144 -1 -1 0
1;
#X obj 24 781 spigot;
#X obj 24 194 bng 15 250 50 0 empty empty empty 17 7 0 10 -262144 -1
-1;
#X text 1100 517 sampler id input;
#X obj 770 673 s;
#X obj 770 369 bng 15 250 50 0 empty empty empty 17 7 0 10 -262144
-1 -1;
#X obj 345 415 bng 15 250 50 0 empty empty empty 17 7 0 10 -262144
-1 -1;
#X floatatom 58 189 5 0 0 0 - - -;
#X msg 58 474 5;
#X connect 0 0 1 0;
#X connect 1 0 35 0;
#X connect 1 1 36 0;
#X connect 1 2 53 0;
#X connect 1 3 55 0;
#X connect 1 4 58 0;
#X connect 1 4 43 1;
#X connect 1 5 60 0;
#X connect 1 6 63 0;
#X connect 1 7 17 0;
#X connect 1 8 32 0;
#X connect 11 0 12 0;
#X connect 12 0 37 0;
#X connect 12 1 15 0;
#X connect 13 0 14 0;
#X connect 14 0 15 0;
#X connect 15 0 16 0;
#X connect 16 0 26 0;
#X connect 16 1 25 0;
#X connect 16 2 29 0;
#X connect 17 0 22 0;
#X connect 18 0 19 0;
#X connect 19 0 67 1;
#X connect 20 0 21 0;
#X connect 23 0 24 0;
#X connect 24 0 22 1;
#X connect 25 0 27 0;
#X connect 26 0 28 0;
#X connect 27 0 21 0;
#X connect 28 0 21 0;
#X connect 29 0 64 0;
#X connect 30 0 32 1;
#X connect 31 0 30 0;
#X connect 33 0 18 0;
#X connect 33 0 20 0;
#X connect 33 0 23 0;
#X connect 33 0 31 0;
#X connect 34 0 33 0;
#X connect 35 0 11 0;
#X connect 35 1 13 0;
#X connect 35 2 51 0;
#X connect 36 0 42 1;
#X connect 37 0 38 0;
#X connect 37 0 42 0;
#X connect 38 0 16 0;
#X connect 38 0 71 0;
#X connect 38 0 48 0;
#X connect 39 0 53 1;
#X connect 40 0 70 0;
#X connect 41 0 40 0;
#X connect 41 0 16 0;
#X connect 42 0 59 0;
#X connect 43 0 46 0;
#X connect 46 0 47 0;
#X connect 46 0 56 0;
#X connect 47 0 41 0;
#X connect 48 0 49 0;
#X connect 49 0 50 0;
#X connect 50 0 25 1;
#X connect 50 0 26 1;
#X connect 51 0 69 0;
#X connect 52 0 51 1;
#X connect 53 0 54 0;
#X connect 54 0 13 1;
#X connect 55 0 49 0;
#X connect 56 0 50 0;
#X connect 57 0 50 0;
#X connect 58 0 57 0;
#X connect 59 0 43 0;
#X connect 59 0 57 0;
#X connect 59 0 68 0;
#X connect 60 0 61 0;
#X connect 61 0 62 0;
#X connect 62 0 27 1;
#X connect 62 0 28 1;
#X connect 63 0 64 1;
#X connect 64 0 65 0;
#X connect 65 0 11 0;
#X connect 68 0 67 0;
#X connect 69 0 56 0;
#X connect 70 0 39 0;
#X connect 70 0 52 0;
#X connect 70 0 11 1;
#X connect 71 0 70 0;
