#N canvas 95 367 897 432 12;
#X obj 14 195 spigot;
#X obj 53 178 tgl 15 0 empty empty empty 17 7 0 10 -262144 -1 -1 0
1;
#X obj 84 194 spigot;
#X obj 123 177 tgl 15 0 empty empty empty 17 7 0 10 -262144 -1 -1 1
1;
#X obj 176 158 loadbang;
#X obj 78 116 bng 15 250 50 0 empty empty empty 17 7 0 10 -262144 -1
-1;
#X obj 14 10 inlet;
#X obj 176 184 f \$1;
#X obj 15 318 sampler;
#X obj 87 318 sampler;
#X floatatom 176 210 5 0 0 0 - - -;
#X obj 439 76 metro 10;
#X floatatom 439 189 5 0 0 0 - - -;
#X obj 439 105 f 0;
#X obj 449 131 + 10;
#X msg 403 84 0;
#X obj 439 48 r start;
#X obj 439 273 s;
#X obj 365 254 symbol;
#X text 451 234 time since last sample was triggered;
#X msg 365 228 clock-\$1;
#X obj 136 29 list split 9;
#X obj 111 97 spigot;
#X obj 176 82 tgl 15 0 empty empty empty 17 7 0 10 -262144 -1 -1 1
1;
#X obj 439 157 / 1000;
#X obj 272 164 inlet;
#X obj 234 242 spigot;
#X obj 287 242 spigot;
#X connect 0 0 8 0;
#X connect 1 0 0 1;
#X connect 1 0 26 1;
#X connect 2 0 9 0;
#X connect 3 0 2 1;
#X connect 3 0 27 1;
#X connect 4 0 3 0;
#X connect 4 0 7 0;
#X connect 4 0 23 0;
#X connect 5 0 3 0;
#X connect 5 0 1 0;
#X connect 6 0 0 0;
#X connect 6 0 2 0;
#X connect 6 0 21 0;
#X connect 6 0 15 0;
#X connect 6 0 22 0;
#X connect 7 0 10 0;
#X connect 7 0 8 3;
#X connect 7 0 9 3;
#X connect 8 0 9 1;
#X connect 9 0 8 1;
#X connect 10 0 20 0;
#X connect 11 0 13 0;
#X connect 12 0 17 0;
#X connect 13 0 14 0;
#X connect 13 0 24 0;
#X connect 14 0 13 1;
#X connect 15 0 13 0;
#X connect 16 0 11 0;
#X connect 18 0 17 1;
#X connect 20 0 18 0;
#X connect 21 1 23 0;
#X connect 22 0 5 0;
#X connect 23 0 22 1;
#X connect 24 0 12 0;
#X connect 25 0 26 0;
#X connect 25 0 27 0;
#X connect 26 0 8 2;
#X connect 27 0 9 2;
