#N canvas 886 252 850 482 12;
#X obj 14 10 inlet;
#X obj 50 129 metro 10;
#X floatatom 50 242 5 0 0 0 - - - 0;
#X obj 50 158 f 0;
#X obj 60 184 + 10;
#X msg 14 137 0;
#X obj 50 101 r start;
#X obj 50 403 s;
#X obj 666 384 symbol;
#X text 58 372 time since last sample was triggered;
#X msg 666 358 clock-\$1;
#X obj 50 210 / 1000;
#X obj 603 268 inlet;
#X obj 551 165 f;
#X obj 583 165 + 1;
#X floatatom 551 189 5 0 0 0 - - - 0;
#X obj 516 150 bng 15 250 50 0 empty empty empty 17 7 0 10 #fcfcfc
#000000 #000000;
#X msg 583 139 0;
#X obj 256 235 == 0;
#X obj 217 260 spigot;
#X obj 217 316 sampler;
#X obj 297 260 spigot;
#X obj 297 316 sampler;
#X obj 375 260 spigot;
#X obj 375 316 sampler;
#X obj 455 260 spigot;
#X obj 455 316 sampler;
#X obj 336 235 == 1;
#X obj 414 235 == 2;
#X obj 494 235 == 3;
#X obj 537 111 moses 4;
#X obj 666 63 loadbang;
#X obj 666 297 f \$1;
#X floatatom 666 321 5 0 0 0 - - - 0;
#X obj 397 101 spigot;
#X obj 436 82 tgl 15 0 empty empty empty 17 7 0 10 #fcfcfc #000000
#000000 0 1;
#X obj 396 48 list split 9;
#X obj 247 287 spigot;
#X obj 327 287 spigot;
#X obj 405 287 spigot;
#X obj 485 287 spigot;
#X obj 171 67 print sample;
#X obj 367 131 t a b;
#X obj 326 29 t a a;
#X connect 0 0 5 0;
#X connect 0 0 43 0;
#X connect 1 0 3 0;
#X connect 2 0 7 0;
#X connect 3 0 4 0;
#X connect 3 0 11 0;
#X connect 4 0 3 1;
#X connect 5 0 3 0;
#X connect 6 0 1 0;
#X connect 8 0 7 1;
#X connect 10 0 8 0;
#X connect 11 0 2 0;
#X connect 12 0 37 0;
#X connect 12 0 38 0;
#X connect 12 0 39 0;
#X connect 12 0 40 0;
#X connect 13 0 14 0;
#X connect 13 0 15 0;
#X connect 13 0 30 0;
#X connect 14 0 13 1;
#X connect 15 0 18 0;
#X connect 15 0 27 0;
#X connect 15 0 28 0;
#X connect 15 0 29 0;
#X connect 16 0 13 0;
#X connect 17 0 13 0;
#X connect 18 0 19 1;
#X connect 18 0 37 1;
#X connect 19 0 20 0;
#X connect 20 0 24 1;
#X connect 21 0 22 0;
#X connect 22 0 26 1;
#X connect 23 0 24 0;
#X connect 24 0 20 1;
#X connect 25 0 26 0;
#X connect 26 0 22 1;
#X connect 27 0 21 1;
#X connect 27 0 38 1;
#X connect 28 0 23 1;
#X connect 28 0 39 1;
#X connect 29 0 25 1;
#X connect 29 0 40 1;
#X connect 30 1 17 0;
#X connect 31 0 32 0;
#X connect 31 0 35 0;
#X connect 32 0 33 0;
#X connect 32 0 26 3;
#X connect 32 0 24 3;
#X connect 32 0 20 3;
#X connect 32 0 22 3;
#X connect 33 0 10 0;
#X connect 34 0 42 0;
#X connect 35 0 34 1;
#X connect 36 1 35 0;
#X connect 37 0 20 2;
#X connect 38 0 22 2;
#X connect 39 0 24 2;
#X connect 40 0 26 2;
#X connect 42 0 19 0;
#X connect 42 0 21 0;
#X connect 42 0 23 0;
#X connect 42 0 25 0;
#X connect 42 1 16 0;
#X connect 43 0 34 0;
#X connect 43 1 36 0;
