#N canvas 470 203 1194 538 12;
#X msg 49 308 start;
#X msg 135 213 stop;
#X obj 49 481 dac~;
#X obj 49 342 readsf~ 2, f 16;
#X obj 135 121 * 1000;
#X obj 135 144 t b f;
#X obj 135 167 del;
#X obj 607 188 bng 15 250 50 0 empty empty empty 17 7 0 10 -262144
-1 -1;
#X obj 150 440 r directout;
#X obj 49 461 *~;
#X obj 103 461 *~;
#X symbolatom 652 278 10 0 0 0 - - -;
#X msg 857 284 play-\$1;
#X obj 857 310 symbol;
#X obj 607 331 s;
#X msg 857 395 set layer\$1;
#X obj 263 416 throw~;
#X msg 376 212 0 \$1;
#X obj 376 188 f;
#X obj 135 190 del;
#X obj 652 303 s;
#X msg 670 226 id\$1;
#X obj 670 252 symbol;
#X obj 49 241 pack s f;
#X obj 376 350 line~;
#X obj 104 370 *~;
#X obj 49 370 *~;
#X obj 104 396 *~;
#X obj 49 396 *~;
#X obj 480 350 f;
#X floatatom 480 376 5 0 0 0 - - -;
#X obj 566 324 tgl 15 0 empty empty empty 17 7 0 10 -262144 -1 -1 1
1;
#X obj 527 363 spigot;
#X msg 49 275 open \$1;
#X obj 157 363 bng 15 250 50 0 empty empty empty 17 7 0 10 -262144
-1 -1;
#X symbolatom 49 187 10 0 0 0 - - -;
#X obj 221 220 * 48000;
#X obj 49 43 inlet;
#X obj 739 258 line;
#X msg 739 234 \$1 100;
#X obj 49 69 unpack s f f f f f f s f, f 99;
#X msg 307 329 1 \$1;
#X obj 802 261 symbol;
#X msg 802 237 panning-\$1;
#X obj 739 282 s;
#X obj 857 205 f;
#X obj 857 176 inlet;
#X connect 0 0 3 0;
#X connect 1 0 3 0;
#X connect 3 0 26 0;
#X connect 3 1 25 0;
#X connect 3 2 32 0;
#X connect 3 2 34 0;
#X connect 4 0 5 0;
#X connect 5 0 6 0;
#X connect 5 1 6 1;
#X connect 6 0 18 0;
#X connect 6 0 7 0;
#X connect 6 0 19 0;
#X connect 7 0 14 0;
#X connect 8 0 9 1;
#X connect 8 0 10 1;
#X connect 9 0 2 0;
#X connect 10 0 2 1;
#X connect 11 0 20 0;
#X connect 12 0 13 0;
#X connect 13 0 14 1;
#X connect 15 0 16 0;
#X connect 17 0 24 0;
#X connect 18 0 17 0;
#X connect 19 0 1 0;
#X connect 21 0 22 0;
#X connect 22 0 20 1;
#X connect 23 0 33 0;
#X connect 24 0 25 1;
#X connect 24 0 26 1;
#X connect 25 0 27 0;
#X connect 26 0 28 0;
#X connect 27 0 10 0;
#X connect 27 0 16 0;
#X connect 28 0 9 0;
#X connect 28 0 16 0;
#X connect 29 0 30 0;
#X connect 30 0 27 1;
#X connect 30 0 28 1;
#X connect 31 0 32 1;
#X connect 32 0 35 0;
#X connect 33 0 3 0;
#X connect 33 0 0 0;
#X connect 35 0 23 0;
#X connect 36 0 23 1;
#X connect 37 0 40 0;
#X connect 38 0 44 0;
#X connect 39 0 38 0;
#X connect 40 0 35 0;
#X connect 40 1 4 0;
#X connect 40 2 36 0;
#X connect 40 3 41 0;
#X connect 40 4 19 1;
#X connect 40 4 18 1;
#X connect 40 5 29 0;
#X connect 40 6 31 0;
#X connect 40 7 11 0;
#X connect 40 8 39 0;
#X connect 41 0 24 0;
#X connect 42 0 44 1;
#X connect 43 0 42 0;
#X connect 45 0 12 0;
#X connect 45 0 15 0;
#X connect 45 0 21 0;
#X connect 45 0 43 0;
#X connect 46 0 45 0;
