#N canvas 227 77 1657 852 12;
#X obj 116 19 inlet;
#X obj 116 44 unpack s f f f f f f s f, f 117;
#X text 122 66 file;
#X text 335 66 start;
#X text 428 67 attack;
#X text 539 69 decay;
#X text 638 68 amp;
#X text 738 67 loop?;
#X text 838 69 id;
#X text 944 68 pan;
#X text 231 67 length;
#X obj 116 207 del 0;
#X obj 116 239 t b b;
#X obj 160 172 pack s f;
#X msg 160 268 set open \$1 \$2;
#X msg 160 292 open E:/code/layers/samples/phrases/drums/drumloops9.wav
240;
#X obj 160 639 readsf~ 2, f 16;
#X symbolatom 830 577 10 0 0 0 - - -;
#X msg 1050 694 set layer\$1;
#X obj 766 713 throw~;
#X obj 830 602 s;
#X msg 848 523 id\$1;
#X obj 848 551 symbol;
#X obj 215 667 *~;
#X obj 160 667 *~;
#X obj 215 693 *~;
#X obj 160 693 *~;
#X obj 269 723 bng 15 250 50 0 empty empty empty 17 7 0 10 -262144
-1 -1;
#X obj 995 560 symbol;
#X msg 995 536 panning-\$1;
#X obj 932 579 s;
#X obj 1050 504 f;
#X obj 1050 475 inlet;
#X obj 116 91 t b s b, f 13;
#X obj 218 91 * 1000;
#X obj 116 318 bng 15 250 50 0 empty empty empty 17 7 0 10 -262144
-1 -1;
#X msg 116 549 start;
#X text 293 392 length;
#X text 295 460 decay;
#X obj 353 484 bng 15 250 50 0 empty empty empty 17 7 0 10 -262144
-1 -1;
#X obj 435 568 bng 15 250 50 0 empty empty empty 17 7 0 10 -262144
-1 -1;
#X msg 422 608 1 10;
#X obj 291 647 line~;
#X obj 271 197 spigot;
#X obj 320 127 +;
#X obj 320 153 * 48000;
#X msg 422 515 set 1 \$1;
#X msg 353 608 0 5;
#X msg 524 515 set 0 \$1;
#X obj 546 444 bng 15 250 50 0 empty empty empty 17 7 0 10 -262144
-1 -1;
#X obj 626 621 f;
#X obj 626 673 line~;
#X obj 728 723 tgl 15 0 empty empty empty 17 7 0 10 -262144 -1 -1 1
1;
#X obj 24 738 spigot;
#X text 1100 474 sampler id input;
#X msg 524 608 0 100;
#X obj 524 208 moses 5;
#X msg 524 234 5;
#X msg 626 647 \$1 30;
#N canvas 616 343 592 398 timer 0;
#X obj 83 239 outlet;
#X obj 10 9 inlet;
#X floatatom 165 202 10 0 0 0 - - -;
#X obj 101 9 inlet;
#X text 144 9 length;
#X text 52 7 start;
#X obj 10 69 tgl 15 0 empty empty empty 17 7 0 10 -262144 -1 -1 0 1
;
#X obj 83 109 f;
#X obj 165 155 / 1000;
#X msg 10 35 1;
#X msg 46 35 0;
#X floatatom 115 44 5 0 0 0 - - -;
#X obj 226 9 inlet;
#X text 274 8 incf;
#X obj 83 134 moses 0;
#X obj 226 108 +;
#X obj 170 44 bng 15 250 50 0 empty empty empty 17 7 0 10 -262144 -1
-1;
#X obj 226 35 * 1000;
#X obj 10 88 metro 10;
#X obj 111 109 - 10;
#X msg 344 86 0;
#X obj 344 17 r start;
#X obj 344 43 select 0;
#X obj 344 68 bng 15 250 50 0 empty empty empty 17 7 0 10 -262144 -1
-1;
#X connect 1 0 9 0;
#X connect 3 0 7 1;
#X connect 3 0 11 0;
#X connect 6 0 18 0;
#X connect 7 0 14 0;
#X connect 7 0 15 1;
#X connect 7 0 19 0;
#X connect 8 0 2 0;
#X connect 9 0 6 0;
#X connect 10 0 6 0;
#X connect 10 0 15 0;
#X connect 11 0 7 1;
#X connect 12 0 17 0;
#X connect 14 0 0 0;
#X connect 14 0 10 0;
#X connect 14 1 8 0;
#X connect 15 0 7 1;
#X connect 16 0 11 0;
#X connect 17 0 15 0;
#X connect 18 0 7 0;
#X connect 19 0 7 1;
#X connect 21 0 22 0;
#X connect 22 0 23 0;
#X connect 23 0 20 0;
#X coords 0 -1 1 1 140 25 1 100 200;
#X restore 152 392 pd timer;
#X obj 24 273 t b b;
#N canvas 973 287 592 398 timer 1;
#X obj 83 239 outlet;
#X obj 10 9 inlet;
#X floatatom 165 202 10 0 0 0 - - -;
#X obj 101 9 inlet;
#X text 144 9 length;
#X text 52 7 start;
#X obj 10 69 tgl 15 0 empty empty empty 17 7 0 10 -262144 -1 -1 0 1
;
#X obj 83 109 f;
#X obj 165 155 / 1000;
#X msg 10 35 1;
#X msg 46 35 0;
#X floatatom 115 44 5 0 0 0 - - -;
#X obj 226 9 inlet;
#X text 274 8 incf;
#X obj 10 88 metro 10;
#X obj 83 134 moses 0;
#X obj 226 108 +;
#X obj 111 109 - 10;
#X connect 1 0 9 0;
#X connect 3 0 7 1;
#X connect 3 0 11 0;
#X connect 6 0 14 0;
#X connect 7 0 15 0;
#X connect 7 0 16 1;
#X connect 7 0 17 0;
#X connect 8 0 2 0;
#X connect 9 0 6 0;
#X connect 10 0 6 0;
#X connect 12 0 16 0;
#X connect 14 0 7 0;
#X connect 15 0 0 0;
#X connect 15 0 10 0;
#X connect 15 1 8 0;
#X connect 16 0 7 1;
#X connect 17 0 7 1;
#X coords 0 -1 1 1 140 25 1 100 200;
#X restore 151 459 pd timer;
#X obj 353 360 r start;
#X obj 353 386 select 0;
#X obj 454 354 inlet;
#X text 428 334 new trigger;
#X obj 454 378 t b f;
#X obj 452 196 outlet;
#X obj 208 499 del 5;
#X msg 208 523 stop;
#X obj 25 182 tgl 15 0 empty empty empty 17 7 0 10 -262144 -1 -1 0
1;
#X floatatom 65 214 5 0 0 0 - - -;
#X obj 65 108 / 1000;
#X msg 65 542 0;
#X msg 65 568 5;
#X obj 546 417 spigot;
#X msg 585 333 1;
#X msg 596 417 0;
#X obj 452 110 - 100;
#X obj 452 134 moses 5;
#X msg 452 158 5;
#X text 9 157 playing?;
#X obj 728 743 == 0;
#X obj 728 768 tgl 15 0 empty empty empty 17 7 0 10 -262144 -1 -1 0
1;
#X obj 65 783 spigot;
#X connect 0 0 1 0;
#X connect 1 0 33 0;
#X connect 1 1 34 0;
#X connect 1 2 44 0;
#X connect 1 3 46 0;
#X connect 1 4 56 0;
#X connect 1 5 50 0;
#X connect 1 6 52 0;
#X connect 1 7 17 0;
#X connect 1 8 30 0;
#X connect 11 0 12 0;
#X connect 12 0 35 0;
#X connect 12 1 15 0;
#X connect 13 0 14 0;
#X connect 14 0 15 0;
#X connect 15 0 16 0;
#X connect 16 0 24 0;
#X connect 16 1 23 0;
#X connect 16 2 27 0;
#X connect 17 0 20 0;
#X connect 18 0 19 0;
#X connect 21 0 22 0;
#X connect 22 0 20 1;
#X connect 23 0 25 0;
#X connect 24 0 26 0;
#X connect 25 0 19 0;
#X connect 26 0 19 0;
#X connect 27 0 53 0;
#X connect 27 0 84 0;
#X connect 28 0 30 1;
#X connect 29 0 28 0;
#X connect 31 0 18 0;
#X connect 31 0 21 0;
#X connect 31 0 29 0;
#X connect 32 0 31 0;
#X connect 33 0 11 0;
#X connect 33 1 13 0;
#X connect 33 2 43 0;
#X connect 34 0 59 1;
#X connect 34 0 78 0;
#X connect 35 0 36 0;
#X connect 35 0 59 0;
#X connect 35 0 76 0;
#X connect 36 0 16 0;
#X connect 36 0 40 0;
#X connect 36 0 74 0;
#X connect 39 0 68 0;
#X connect 39 0 47 0;
#X connect 40 0 41 0;
#X connect 41 0 42 0;
#X connect 42 0 23 1;
#X connect 42 0 24 1;
#X connect 43 0 39 0;
#X connect 44 0 45 0;
#X connect 45 0 13 1;
#X connect 46 0 41 0;
#X connect 47 0 42 0;
#X connect 48 0 55 0;
#X connect 49 0 55 0;
#X connect 49 0 61 0;
#X connect 50 0 58 0;
#X connect 51 0 25 1;
#X connect 51 0 26 1;
#X connect 52 0 53 1;
#X connect 52 0 82 0;
#X connect 53 0 60 0;
#X connect 55 0 42 0;
#X connect 56 0 57 0;
#X connect 56 1 48 0;
#X connect 56 1 61 1;
#X connect 57 0 48 0;
#X connect 58 0 51 0;
#X connect 59 0 75 0;
#X connect 60 0 36 0;
#X connect 60 1 15 0;
#X connect 61 0 39 0;
#X connect 62 0 63 0;
#X connect 63 0 39 0;
#X connect 64 0 66 0;
#X connect 66 0 75 0;
#X connect 66 1 48 0;
#X connect 66 1 61 1;
#X connect 68 0 69 0;
#X connect 69 0 16 0;
#X connect 69 0 73 0;
#X connect 70 0 43 1;
#X connect 71 0 72 0;
#X connect 71 0 70 0;
#X connect 71 0 11 1;
#X connect 72 0 44 1;
#X connect 73 0 71 0;
#X connect 74 0 71 0;
#X connect 75 0 77 0;
#X connect 75 0 49 0;
#X connect 76 0 75 1;
#X connect 77 0 75 1;
#X connect 78 0 79 0;
#X connect 79 0 80 0;
#X connect 79 1 67 0;
#X connect 80 0 67 0;
#X connect 82 0 83 0;
#X connect 83 0 84 1;
#X connect 84 0 73 0;
