#N canvas 0 50 450 300 12;
#X obj 14 108 spigot;
#X obj 53 91 tgl 15 0 empty empty empty 17 7 0 10 -262144 -1 -1 0 1
;
#X obj 84 107 spigot;
#X obj 123 90 tgl 15 0 empty empty empty 17 7 0 10 -262144 -1 -1 1
1;
#X obj 144 69 loadbang;
#X obj 78 31 bng 15 250 50 0 empty empty empty 17 7 0 10 -262144 -1
-1;
#X obj 14 10 inlet;
#X obj 144 95 f \$1;
#X obj 14 170 sampler;
#X obj 84 170 sampler;
#X floatatom 144 121 5 0 0 0 - - -;
#X connect 0 0 8 0;
#X connect 1 0 0 1;
#X connect 2 0 9 0;
#X connect 3 0 2 1;
#X connect 4 0 3 0;
#X connect 4 0 7 0;
#X connect 5 0 1 0;
#X connect 5 0 3 0;
#X connect 6 0 5 0;
#X connect 6 0 0 0;
#X connect 6 0 2 0;
#X connect 7 0 8 1;
#X connect 7 0 9 1;
#X connect 7 0 10 0;
