#N canvas 444 199 834 606 10;
#X obj 240 143 *~;
#X obj 384 12 vsl 15 128 0 1 0 0 empty fader1 empty 0 -9 0 10 -262144
-1 -1 0 1;
#X obj 155 232 vu 15 120 empty empty -1 -8 0 10 -66577 -1 1 0;
#X obj 240 165 env~;
#X floatatom 240 189 5 0 0 0 - - meter1;
#X obj 240 212 - 100;
#X obj 239 117 inlet~;
#X obj 284 161 outlet~;
#X connect 0 0 3 0;
#X connect 0 0 7 0;
#X connect 1 0 0 1;
#X connect 3 0 4 0;
#X connect 5 0 2 0;
#X connect 6 0 0 0;
